solid OpenSCAD_Model
  facet normal -1 0 0
    outer loop
      vertex -75 -75 -0.5
      vertex -75 75 0.5
      vertex -75 75 -0.5
    endloop
  endfacet
  facet normal -1 -0 0
    outer loop
      vertex -75 75 0.5
      vertex -75 -75 -0.5
      vertex -75 -75 0.5
    endloop
  endfacet
  facet normal 0 0 1
    outer loop
      vertex 75 75 0.5
      vertex 74.2 74.2 0.5
      vertex 75 -75 0.5
    endloop
  endfacet
  facet normal 0 0 1
    outer loop
      vertex 75 75 0.5
      vertex -74.2 74.2 0.5
      vertex 74.2 74.2 0.5
    endloop
  endfacet
  facet normal 0 0 1
    outer loop
      vertex -74.2 74.2 0.5
      vertex -75 75 0.5
      vertex -74.2 -74.2 0.5
    endloop
  endfacet
  facet normal -0 0 1
    outer loop
      vertex -75 75 0.5
      vertex -74.2 74.2 0.5
      vertex 75 75 0.5
    endloop
  endfacet
  facet normal -0 0 1
    outer loop
      vertex 74.2 -74.2 0.5
      vertex 75 -75 0.5
      vertex 74.2 74.2 0.5
    endloop
  endfacet
  facet normal -0 0 1
    outer loop
      vertex -74.2 -74.2 0.5
      vertex 75 -75 0.5
      vertex 74.2 -74.2 0.5
    endloop
  endfacet
  facet normal 0 0 1
    outer loop
      vertex -74.2 -74.2 0.5
      vertex -75 -75 0.5
      vertex 75 -75 0.5
    endloop
  endfacet
  facet normal 0 0 1
    outer loop
      vertex -75 -75 0.5
      vertex -74.2 -74.2 0.5
      vertex -75 75 0.5
    endloop
  endfacet
  facet normal 1 -0 0
    outer loop
      vertex 75 -75 0.5
      vertex 75 75 -0.5
      vertex 75 75 0.5
    endloop
  endfacet
  facet normal 1 0 0
    outer loop
      vertex 75 75 -0.5
      vertex 75 -75 0.5
      vertex 75 -75 -0.5
    endloop
  endfacet
  facet normal 0 1 -0
    outer loop
      vertex 75 75 -0.5
      vertex -75 75 0.5
      vertex 75 75 0.5
    endloop
  endfacet
  facet normal 0 1 0
    outer loop
      vertex -75 75 0.5
      vertex 75 75 -0.5
      vertex -75 75 -0.5
    endloop
  endfacet
  facet normal 0 0 -1
    outer loop
      vertex 75 -75 -0.5
      vertex 74.2 -74.2 -0.5
      vertex 75 75 -0.5
    endloop
  endfacet
  facet normal 0 0 -1
    outer loop
      vertex 75 -75 -0.5
      vertex -74.2 -74.2 -0.5
      vertex 74.2 -74.2 -0.5
    endloop
  endfacet
  facet normal -0 0 -1
    outer loop
      vertex -74.2 -74.2 -0.5
      vertex -75 -75 -0.5
      vertex -74.2 74.2 -0.5
    endloop
  endfacet
  facet normal 0 0 -1
    outer loop
      vertex -75 -75 -0.5
      vertex -74.2 -74.2 -0.5
      vertex 75 -75 -0.5
    endloop
  endfacet
  facet normal 0 0 -1
    outer loop
      vertex 74.2 74.2 -0.5
      vertex 75 75 -0.5
      vertex 74.2 -74.2 -0.5
    endloop
  endfacet
  facet normal 0 0 -1
    outer loop
      vertex -74.2 74.2 -0.5
      vertex 75 75 -0.5
      vertex 74.2 74.2 -0.5
    endloop
  endfacet
  facet normal 0 0 -1
    outer loop
      vertex -74.2 74.2 -0.5
      vertex -75 75 -0.5
      vertex 75 75 -0.5
    endloop
  endfacet
  facet normal 0 0 -1
    outer loop
      vertex -75 75 -0.5
      vertex -74.2 74.2 -0.5
      vertex -75 -75 -0.5
    endloop
  endfacet
  facet normal 0 -1 0
    outer loop
      vertex -75 -75 -0.5
      vertex 75 -75 0.5
      vertex -75 -75 0.5
    endloop
  endfacet
  facet normal 0 -1 -0
    outer loop
      vertex 75 -75 0.5
      vertex -75 -75 -0.5
      vertex 75 -75 -0.5
    endloop
  endfacet
  facet normal 1 -0 0
    outer loop
      vertex -74.2 -74.2 0.5
      vertex -74.2 74.2 -0.5
      vertex -74.2 74.2 0.5
    endloop
  endfacet
  facet normal 1 0 0
    outer loop
      vertex -74.2 74.2 -0.5
      vertex -74.2 -74.2 0.5
      vertex -74.2 -74.2 -0.5
    endloop
  endfacet
  facet normal -1 0 0
    outer loop
      vertex 74.2 -74.2 -0.5
      vertex 74.2 74.2 0.5
      vertex 74.2 74.2 -0.5
    endloop
  endfacet
  facet normal -1 -0 0
    outer loop
      vertex 74.2 74.2 0.5
      vertex 74.2 -74.2 -0.5
      vertex 74.2 -74.2 0.5
    endloop
  endfacet
  facet normal 0 1 -0
    outer loop
      vertex 74.2 -74.2 -0.5
      vertex -74.2 -74.2 0.5
      vertex 74.2 -74.2 0.5
    endloop
  endfacet
  facet normal 0 1 0
    outer loop
      vertex -74.2 -74.2 0.5
      vertex 74.2 -74.2 -0.5
      vertex -74.2 -74.2 -0.5
    endloop
  endfacet
  facet normal 0 -1 0
    outer loop
      vertex -74.2 74.2 -0.5
      vertex 74.2 74.2 0.5
      vertex -74.2 74.2 0.5
    endloop
  endfacet
  facet normal 0 -1 -0
    outer loop
      vertex 74.2 74.2 0.5
      vertex -74.2 74.2 -0.5
      vertex 74.2 74.2 -0.5
    endloop
  endfacet
endsolid OpenSCAD_Model
