solid OpenSCAD_Model
  facet normal -0.70746 -0.706753 0
    outer loop
      vertex -96.9202 -99.6555 -0.349999
      vertex -96.5201 -100.056 0.349999
      vertex -96.9202 -99.6555 0.349999
    endloop
  endfacet
  facet normal -0.70746 -0.706753 -0
    outer loop
      vertex -96.5201 -100.056 0.349999
      vertex -96.9202 -99.6555 -0.349999
      vertex -96.5201 -100.056 -0.349999
    endloop
  endfacet
  facet normal 0 0 1
    outer loop
      vertex 104.747 101.111 0.349999
      vertex 104.738 100.315 0.349999
      vertex 104.762 100.713 0.349999
    endloop
  endfacet
  facet normal 0 0 1
    outer loop
      vertex 104.693 101.506 0.349999
      vertex 104.738 100.315 0.349999
      vertex 104.747 101.111 0.349999
    endloop
  endfacet
  facet normal 0 0 1
    outer loop
      vertex 104.693 101.506 0.349999
      vertex 104.673 99.9213 0.349999
      vertex 104.738 100.315 0.349999
    endloop
  endfacet
  facet normal 0 0 1
    outer loop
      vertex 104.599 101.894 0.349999
      vertex 104.673 99.9213 0.349999
      vertex 104.693 101.506 0.349999
    endloop
  endfacet
  facet normal 0 0 1
    outer loop
      vertex 104.599 101.894 0.349999
      vertex 104.57 99.5361 0.349999
      vertex 104.673 99.9213 0.349999
    endloop
  endfacet
  facet normal 0 0 1
    outer loop
      vertex 104.468 102.27 0.349999
      vertex 104.57 99.5361 0.349999
      vertex 104.599 101.894 0.349999
    endloop
  endfacet
  facet normal 0 0 1
    outer loop
      vertex 104.468 102.27 0.349999
      vertex 104.429 99.1631 0.349999
      vertex 104.57 99.5361 0.349999
    endloop
  endfacet
  facet normal 0 0 1
    outer loop
      vertex 104.299 102.632 0.349999
      vertex 104.429 99.1631 0.349999
      vertex 104.468 102.27 0.349999
    endloop
  endfacet
  facet normal 0 0 1
    outer loop
      vertex 104.299 102.632 0.349999
      vertex 104.251 98.8061 0.349999
      vertex 104.429 99.1631 0.349999
    endloop
  endfacet
  facet normal 0 0 1
    outer loop
      vertex 104.096 102.975 0.349999
      vertex 104.251 98.8061 0.349999
      vertex 104.299 102.632 0.349999
    endloop
  endfacet
  facet normal 0 0 1
    outer loop
      vertex 104.096 102.975 0.349999
      vertex 104.039 98.4684 0.349999
      vertex 104.251 98.8061 0.349999
    endloop
  endfacet
  facet normal 0 0 1
    outer loop
      vertex 103.859 103.295 0.349999
      vertex 104.039 98.4684 0.349999
      vertex 104.096 102.975 0.349999
    endloop
  endfacet
  facet normal 0 0 1
    outer loop
      vertex 103.859 103.295 0.349999
      vertex 103.795 98.1536 0.349999
      vertex 104.039 98.4684 0.349999
    endloop
  endfacet
  facet normal 0 0 1
    outer loop
      vertex 103.591 103.591 0.349999
      vertex 103.795 98.1536 0.349999
      vertex 103.859 103.295 0.349999
    endloop
  endfacet
  facet normal 0 0 1
    outer loop
      vertex 103.591 103.591 0.349999
      vertex 103.52 97.8647 0.349999
      vertex 103.795 98.1536 0.349999
    endloop
  endfacet
  facet normal 0 0 1
    outer loop
      vertex 103.295 103.859 0.349999
      vertex 103.52 97.8647 0.349999
      vertex 103.591 103.591 0.349999
    endloop
  endfacet
  facet normal 0 0 1
    outer loop
      vertex 103.295 103.859 0.349999
      vertex 103.217 97.6045 0.349999
      vertex 103.52 97.8647 0.349999
    endloop
  endfacet
  facet normal 0 0 1
    outer loop
      vertex 102.975 104.096 0.349999
      vertex 103.217 97.6045 0.349999
      vertex 103.295 103.859 0.349999
    endloop
  endfacet
  facet normal 0 0 1
    outer loop
      vertex 102.975 104.096 0.349999
      vertex 102.891 97.3758 0.349999
      vertex 103.217 97.6045 0.349999
    endloop
  endfacet
  facet normal 0 0 1
    outer loop
      vertex 102.632 104.299 0.349999
      vertex 102.891 97.3758 0.349999
      vertex 102.975 104.096 0.349999
    endloop
  endfacet
  facet normal 0 0 1
    outer loop
      vertex 102.632 104.299 0.349999
      vertex 102.543 97.1808 0.349999
      vertex 102.891 97.3758 0.349999
    endloop
  endfacet
  facet normal 0 0 1
    outer loop
      vertex 102.27 104.468 0.349999
      vertex 102.543 97.1808 0.349999
      vertex 102.632 104.299 0.349999
    endloop
  endfacet
  facet normal 0 0 1
    outer loop
      vertex 102.27 104.468 0.349999
      vertex 102.178 97.0213 0.349999
      vertex 102.543 97.1808 0.349999
    endloop
  endfacet
  facet normal 0 0 1
    outer loop
      vertex 101.894 104.599 0.349999
      vertex 102.178 97.0213 0.349999
      vertex 102.27 104.468 0.349999
    endloop
  endfacet
  facet normal 0 0 1
    outer loop
      vertex 101.894 104.599 0.349999
      vertex 101.798 96.899 0.349999
      vertex 102.178 97.0213 0.349999
    endloop
  endfacet
  facet normal 0 0 1
    outer loop
      vertex 101.506 104.693 0.349999
      vertex 101.798 96.899 0.349999
      vertex 101.894 104.599 0.349999
    endloop
  endfacet
  facet normal 0 0 1
    outer loop
      vertex 101.506 104.693 0.349999
      vertex 101.408 96.8151 0.349999
      vertex 101.798 96.899 0.349999
    endloop
  endfacet
  facet normal 0 0 1
    outer loop
      vertex 101.111 104.747 0.349999
      vertex 101.408 96.8151 0.349999
      vertex 101.506 104.693 0.349999
    endloop
  endfacet
  facet normal 0 0 1
    outer loop
      vertex 101.111 104.747 0.349999
      vertex 101.012 96.7705 0.349999
      vertex 101.408 96.8151 0.349999
    endloop
  endfacet
  facet normal 0 0 1
    outer loop
      vertex 100.713 104.762 0.349999
      vertex 101.012 96.7705 0.349999
      vertex 101.111 104.747 0.349999
    endloop
  endfacet
  facet normal 0 0 1
    outer loop
      vertex 100.713 104.762 0.349999
      vertex 100.613 96.7655 0.349999
      vertex 101.012 96.7705 0.349999
    endloop
  endfacet
  facet normal -0 0 1
    outer loop
      vertex 100.315 104.738 0.349999
      vertex 100.613 96.7655 0.349999
      vertex 100.713 104.762 0.349999
    endloop
  endfacet
  facet normal 0 0 1
    outer loop
      vertex 100.315 104.738 0.349999
      vertex 100.216 96.8003 0.349999
      vertex 100.613 96.7655 0.349999
    endloop
  endfacet
  facet normal -0 0 1
    outer loop
      vertex 99.9213 104.673 0.349999
      vertex 100.216 96.8003 0.349999
      vertex 100.315 104.738 0.349999
    endloop
  endfacet
  facet normal -0 0 1
    outer loop
      vertex 99.6499 96.9258 0.349999
      vertex 100.216 96.8003 0.349999
      vertex 99.9213 104.673 0.349999
    endloop
  endfacet
  facet normal 0 0 1
    outer loop
      vertex 100.216 96.8003 0.349999
      vertex 99.6499 96.9258 0.349999
      vertex 99.8241 96.8744 0.349999
    endloop
  endfacet
  facet normal 0 -0 1
    outer loop
      vertex 99.6499 96.9258 0.349999
      vertex 99.9213 104.673 0.349999
      vertex 99.5361 104.57 0.349999
    endloop
  endfacet
  facet normal -0 0 1
    outer loop
      vertex 99.1631 104.429 0.349999
      vertex 99.6499 96.9258 0.349999
      vertex 99.5361 104.57 0.349999
    endloop
  endfacet
  facet normal -0 0 1
    outer loop
      vertex 98.8061 104.251 0.349999
      vertex 99.6499 96.9258 0.349999
      vertex 99.1631 104.429 0.349999
    endloop
  endfacet
  facet normal -0 0 1
    outer loop
      vertex 98.4684 104.039 0.349999
      vertex 99.6499 96.9258 0.349999
      vertex 98.8061 104.251 0.349999
    endloop
  endfacet
  facet normal -0 0 1
    outer loop
      vertex 98.1536 103.795 0.349999
      vertex 99.6499 96.9258 0.349999
      vertex 98.4684 104.039 0.349999
    endloop
  endfacet
  facet normal -0 0 1
    outer loop
      vertex 97.8647 103.52 0.349999
      vertex 99.6499 96.9258 0.349999
      vertex 98.1536 103.795 0.349999
    endloop
  endfacet
  facet normal -0 0 1
    outer loop
      vertex 97.6045 103.217 0.349999
      vertex 99.6499 96.9258 0.349999
      vertex 97.8647 103.52 0.349999
    endloop
  endfacet
  facet normal -0 0 1
    outer loop
      vertex 97.4575 98.5182 0.349999
      vertex 99.6499 96.9258 0.349999
      vertex 97.6045 103.217 0.349999
    endloop
  endfacet
  facet normal 0 0 1
    outer loop
      vertex 94.9998 96.0605 0.349999
      vertex 99.6499 96.9258 0.349999
      vertex 97.4575 98.5182 0.349999
    endloop
  endfacet
  facet normal 0 0 1
    outer loop
      vertex 99.6499 96.9258 0.349999
      vertex 94.9998 96.0605 0.349999
      vertex 100.056 96.5201 0.349999
    endloop
  endfacet
  facet normal 0 0 1
    outer loop
      vertex 49.7803 50.841 0.349999
      vertex 94.9998 96.0605 0.349999
      vertex 93.7624 97.2979 0.349999
    endloop
  endfacet
  facet normal 0 0 1
    outer loop
      vertex 49.7803 50.841 0.349999
      vertex 100.056 96.5201 0.349999
      vertex 94.9998 96.0605 0.349999
    endloop
  endfacet
  facet normal 0 0 1
    outer loop
      vertex 47.659 48.7197 0.349999
      vertex 100.056 96.5201 0.349999
      vertex 49.7803 50.841 0.349999
    endloop
  endfacet
  facet normal 0 0 1
    outer loop
      vertex 1.16673 2.22739 0.349999
      vertex 47.659 48.7197 0.349999
      vertex 46.4216 49.9571 0.349999
    endloop
  endfacet
  facet normal 0 0 1
    outer loop
      vertex 1.16673 2.22739 0.349999
      vertex 100.056 96.5201 0.349999
      vertex 47.659 48.7197 0.349999
    endloop
  endfacet
  facet normal 0 0 1
    outer loop
      vertex -0.954594 0.106066 0.349999
      vertex 100.056 96.5201 0.349999
      vertex 1.16673 2.22739 0.349999
    endloop
  endfacet
  facet normal 0 0 1
    outer loop
      vertex -47.4469 -46.3862 0.349999
      vertex -0.954594 0.106066 0.349999
      vertex -2.19203 1.3435 0.349999
    endloop
  endfacet
  facet normal 0 0 1
    outer loop
      vertex -96.5201 -100.056 0.349999
      vertex -0.954594 0.106066 0.349999
      vertex -47.4469 -46.3862 0.349999
    endloop
  endfacet
  facet normal 0 0 1
    outer loop
      vertex -96.5201 -100.056 0.349999
      vertex -47.4469 -46.3862 0.349999
      vertex -49.5682 -48.5075 0.349999
    endloop
  endfacet
  facet normal 0 0 1
    outer loop
      vertex -96.0605 -94.9998 0.349999
      vertex -49.5682 -48.5075 0.349999
      vertex -50.8056 -47.2701 0.349999
    endloop
  endfacet
  facet normal 0 0 1
    outer loop
      vertex -96.5201 -100.056 0.349999
      vertex -49.5682 -48.5075 0.349999
      vertex -96.0605 -94.9998 0.349999
    endloop
  endfacet
  facet normal -0 0 1
    outer loop
      vertex -0.954594 0.106066 0.349999
      vertex -96.5201 -100.056 0.349999
      vertex 100.056 96.5201 0.349999
    endloop
  endfacet
  facet normal 0 0 1
    outer loop
      vertex -96.0605 -94.9998 0.349999
      vertex -96.9202 -99.6555 0.349999
      vertex -96.5201 -100.056 0.349999
    endloop
  endfacet
  facet normal 0 0 1
    outer loop
      vertex -96.9202 -99.6555 0.349999
      vertex -97.0965 -102.362 0.349999
      vertex -96.9554 -101.989 0.349999
    endloop
  endfacet
  facet normal 0 0 1
    outer loop
      vertex -96.9202 -99.6555 0.349999
      vertex -97.2739 -102.719 0.349999
      vertex -97.0965 -102.362 0.349999
    endloop
  endfacet
  facet normal 0 0 1
    outer loop
      vertex -96.9202 -99.6555 0.349999
      vertex -97.4861 -103.057 0.349999
      vertex -97.2739 -102.719 0.349999
    endloop
  endfacet
  facet normal 0 0 1
    outer loop
      vertex -96.9202 -99.6555 0.349999
      vertex -97.7308 -103.372 0.349999
      vertex -97.4861 -103.057 0.349999
    endloop
  endfacet
  facet normal -0 0 1
    outer loop
      vertex -98.5162 -97.4555 0.349999
      vertex -96.9202 -99.6555 0.349999
      vertex -96.0605 -94.9998 0.349999
    endloop
  endfacet
  facet normal 0 0 1
    outer loop
      vertex -96.9202 -99.6555 0.349999
      vertex -98.5162 -97.4555 0.349999
      vertex -97.7308 -103.372 0.349999
    endloop
  endfacet
  facet normal 0 0 1
    outer loop
      vertex -97.7308 -103.372 0.349999
      vertex -98.5162 -97.4555 0.349999
      vertex -98.0057 -103.661 0.349999
    endloop
  endfacet
  facet normal 0 0 1
    outer loop
      vertex -98.0057 -103.661 0.349999
      vertex -98.5162 -97.4555 0.349999
      vertex -98.3079 -103.921 0.349999
    endloop
  endfacet
  facet normal 0 0 1
    outer loop
      vertex -98.8936 -97.2263 0.349999
      vertex -98.5162 -97.4555 0.349999
      vertex -98.5508 -97.4299 0.349999
    endloop
  endfacet
  facet normal 0 0 1
    outer loop
      vertex -98.5162 -97.4555 0.349999
      vertex -98.6346 -104.15 0.349999
      vertex -98.3079 -103.921 0.349999
    endloop
  endfacet
  facet normal 0 0 1
    outer loop
      vertex -98.5162 -97.4555 0.349999
      vertex -98.8936 -97.2263 0.349999
      vertex -98.6346 -104.15 0.349999
    endloop
  endfacet
  facet normal 0 0 1
    outer loop
      vertex -98.8936 -97.2263 0.349999
      vertex -98.9824 -104.345 0.349999
      vertex -98.6346 -104.15 0.349999
    endloop
  endfacet
  facet normal 0 0 1
    outer loop
      vertex -99.255 -97.0577 0.349999
      vertex -98.9824 -104.345 0.349999
      vertex -98.8936 -97.2263 0.349999
    endloop
  endfacet
  facet normal 0 0 1
    outer loop
      vertex -99.255 -97.0577 0.349999
      vertex -99.3479 -104.504 0.349999
      vertex -98.9824 -104.345 0.349999
    endloop
  endfacet
  facet normal 0 0 1
    outer loop
      vertex -99.6314 -96.926 0.349999
      vertex -99.3479 -104.504 0.349999
      vertex -99.255 -97.0577 0.349999
    endloop
  endfacet
  facet normal 0 0 1
    outer loop
      vertex -99.6314 -96.926 0.349999
      vertex -99.7274 -104.626 0.349999
      vertex -99.3479 -104.504 0.349999
    endloop
  endfacet
  facet normal 0 0 1
    outer loop
      vertex -100.019 -96.8325 0.349999
      vertex -99.7274 -104.626 0.349999
      vertex -99.6314 -96.926 0.349999
    endloop
  endfacet
  facet normal 0 0 1
    outer loop
      vertex -100.019 -96.8325 0.349999
      vertex -100.117 -104.71 0.349999
      vertex -99.7274 -104.626 0.349999
    endloop
  endfacet
  facet normal 0 0 1
    outer loop
      vertex -100.414 -96.7779 0.349999
      vertex -100.117 -104.71 0.349999
      vertex -100.019 -96.8325 0.349999
    endloop
  endfacet
  facet normal 0 0 1
    outer loop
      vertex -100.414 -96.7779 0.349999
      vertex -100.514 -104.755 0.349999
      vertex -100.117 -104.71 0.349999
    endloop
  endfacet
  facet normal 0 0 1
    outer loop
      vertex -100.813 -96.763 0.349999
      vertex -100.514 -104.755 0.349999
      vertex -100.414 -96.7779 0.349999
    endloop
  endfacet
  facet normal 0 0 1
    outer loop
      vertex -100.813 -96.763 0.349999
      vertex -100.912 -104.76 0.349999
      vertex -100.514 -104.755 0.349999
    endloop
  endfacet
  facet normal -0 0 1
    outer loop
      vertex -101.211 -96.7879 0.349999
      vertex -100.912 -104.76 0.349999
      vertex -100.813 -96.763 0.349999
    endloop
  endfacet
  facet normal 0 0 1
    outer loop
      vertex -101.211 -96.7879 0.349999
      vertex -101.31 -104.725 0.349999
      vertex -100.912 -104.76 0.349999
    endloop
  endfacet
  facet normal -0 0 1
    outer loop
      vertex -101.604 -96.8522 0.349999
      vertex -101.31 -104.725 0.349999
      vertex -101.211 -96.7879 0.349999
    endloop
  endfacet
  facet normal 0 0 1
    outer loop
      vertex -101.604 -96.8522 0.349999
      vertex -101.701 -104.651 0.349999
      vertex -101.31 -104.725 0.349999
    endloop
  endfacet
  facet normal -0 0 1
    outer loop
      vertex -101.989 -96.9554 0.349999
      vertex -101.701 -104.651 0.349999
      vertex -101.604 -96.8522 0.349999
    endloop
  endfacet
  facet normal 0 0 1
    outer loop
      vertex -101.989 -96.9554 0.349999
      vertex -102.084 -104.538 0.349999
      vertex -101.701 -104.651 0.349999
    endloop
  endfacet
  facet normal -0 0 1
    outer loop
      vertex -102.362 -97.0965 0.349999
      vertex -102.084 -104.538 0.349999
      vertex -101.989 -96.9554 0.349999
    endloop
  endfacet
  facet normal 0 0 1
    outer loop
      vertex -102.362 -97.0965 0.349999
      vertex -102.453 -104.388 0.349999
      vertex -102.084 -104.538 0.349999
    endloop
  endfacet
  facet normal -0 0 1
    outer loop
      vertex -102.719 -97.2739 0.349999
      vertex -102.453 -104.388 0.349999
      vertex -102.362 -97.0965 0.349999
    endloop
  endfacet
  facet normal 0 0 1
    outer loop
      vertex -102.719 -97.2739 0.349999
      vertex -102.806 -104.202 0.349999
      vertex -102.453 -104.388 0.349999
    endloop
  endfacet
  facet normal -0 0 1
    outer loop
      vertex -103.057 -97.4861 0.349999
      vertex -102.806 -104.202 0.349999
      vertex -102.719 -97.2739 0.349999
    endloop
  endfacet
  facet normal 0 0 1
    outer loop
      vertex -103.057 -97.4861 0.349999
      vertex -103.138 -103.981 0.349999
      vertex -102.806 -104.202 0.349999
    endloop
  endfacet
  facet normal -0 0 1
    outer loop
      vertex -103.372 -97.7308 0.349999
      vertex -103.138 -103.981 0.349999
      vertex -103.057 -97.4861 0.349999
    endloop
  endfacet
  facet normal 0 0 1
    outer loop
      vertex -103.372 -97.7308 0.349999
      vertex -103.447 -103.729 0.349999
      vertex -103.138 -103.981 0.349999
    endloop
  endfacet
  facet normal -0 0 1
    outer loop
      vertex -103.661 -98.0057 0.349999
      vertex -103.447 -103.729 0.349999
      vertex -103.372 -97.7308 0.349999
    endloop
  endfacet
  facet normal 0 0 1
    outer loop
      vertex -103.661 -98.0057 0.349999
      vertex -103.729 -103.447 0.349999
      vertex -103.447 -103.729 0.349999
    endloop
  endfacet
  facet normal -0 0 1
    outer loop
      vertex -103.921 -98.3079 0.349999
      vertex -103.729 -103.447 0.349999
      vertex -103.661 -98.0057 0.349999
    endloop
  endfacet
  facet normal 0 0 1
    outer loop
      vertex -103.921 -98.3079 0.349999
      vertex -103.981 -103.138 0.349999
      vertex -103.729 -103.447 0.349999
    endloop
  endfacet
  facet normal -0 0 1
    outer loop
      vertex -104.15 -98.6346 0.349999
      vertex -103.981 -103.138 0.349999
      vertex -103.921 -98.3079 0.349999
    endloop
  endfacet
  facet normal 0 0 1
    outer loop
      vertex -104.15 -98.6346 0.349999
      vertex -104.202 -102.806 0.349999
      vertex -103.981 -103.138 0.349999
    endloop
  endfacet
  facet normal -0 0 1
    outer loop
      vertex -104.345 -98.9824 0.349999
      vertex -104.202 -102.806 0.349999
      vertex -104.15 -98.6346 0.349999
    endloop
  endfacet
  facet normal 0 0 1
    outer loop
      vertex -104.345 -98.9824 0.349999
      vertex -104.388 -102.453 0.349999
      vertex -104.202 -102.806 0.349999
    endloop
  endfacet
  facet normal -0 0 1
    outer loop
      vertex -104.504 -99.3479 0.349999
      vertex -104.388 -102.453 0.349999
      vertex -104.345 -98.9824 0.349999
    endloop
  endfacet
  facet normal 0 0 1
    outer loop
      vertex -104.504 -99.3479 0.349999
      vertex -104.538 -102.084 0.349999
      vertex -104.388 -102.453 0.349999
    endloop
  endfacet
  facet normal -0 0 1
    outer loop
      vertex -104.626 -99.7274 0.349999
      vertex -104.538 -102.084 0.349999
      vertex -104.504 -99.3479 0.349999
    endloop
  endfacet
  facet normal 0 0 1
    outer loop
      vertex -104.626 -99.7274 0.349999
      vertex -104.651 -101.701 0.349999
      vertex -104.538 -102.084 0.349999
    endloop
  endfacet
  facet normal -0 0 1
    outer loop
      vertex -104.71 -100.117 0.349999
      vertex -104.651 -101.701 0.349999
      vertex -104.626 -99.7274 0.349999
    endloop
  endfacet
  facet normal 0 0 1
    outer loop
      vertex -104.71 -100.117 0.349999
      vertex -104.725 -101.31 0.349999
      vertex -104.651 -101.701 0.349999
    endloop
  endfacet
  facet normal -0 0 1
    outer loop
      vertex -104.755 -100.514 0.349999
      vertex -104.725 -101.31 0.349999
      vertex -104.71 -100.117 0.349999
    endloop
  endfacet
  facet normal 0 0 1
    outer loop
      vertex -104.725 -101.31 0.349999
      vertex -104.755 -100.514 0.349999
      vertex -104.76 -100.912 0.349999
    endloop
  endfacet
  facet normal 0 0 1
    outer loop
      vertex -50.8056 -47.2701 0.349999
      vertex -97.2979 -93.7624 0.349999
      vertex -96.0605 -94.9998 0.349999
    endloop
  endfacet
  facet normal 0 0 1
    outer loop
      vertex -2.19203 1.3435 0.349999
      vertex -48.6843 -45.1488 0.349999
      vertex -47.4469 -46.3862 0.349999
    endloop
  endfacet
  facet normal 0 0 1
    outer loop
      vertex 46.4216 49.9571 0.349999
      vertex -0.0707109 3.46482 0.349999
      vertex 1.16673 2.22739 0.349999
    endloop
  endfacet
  facet normal 0 0 1
    outer loop
      vertex 93.7624 97.2979 0.349999
      vertex 48.5429 52.0784 0.349999
      vertex 49.7803 50.841 0.349999
    endloop
  endfacet
  facet normal -0 0 1
    outer loop
      vertex 97.3758 102.891 0.349999
      vertex 97.4575 98.5182 0.349999
      vertex 97.6045 103.217 0.349999
    endloop
  endfacet
  facet normal -0 0 1
    outer loop
      vertex 97.1808 102.543 0.349999
      vertex 97.4575 98.5182 0.349999
      vertex 97.3758 102.891 0.349999
    endloop
  endfacet
  facet normal -0 0 1
    outer loop
      vertex 97.1375 99.0722 0.349999
      vertex 97.4575 98.5182 0.349999
      vertex 97.1808 102.543 0.349999
    endloop
  endfacet
  facet normal 0 0 1
    outer loop
      vertex 97.4575 98.5182 0.349999
      vertex 97.1375 99.0722 0.349999
      vertex 97.3238 98.7197 0.349999
    endloop
  endfacet
  facet normal -0 0 1
    outer loop
      vertex 97.0213 102.178 0.349999
      vertex 97.1375 99.0722 0.349999
      vertex 97.1808 102.543 0.349999
    endloop
  endfacet
  facet normal 0 0 1
    outer loop
      vertex 97.0213 102.178 0.349999
      vertex 96.9872 99.4416 0.349999
      vertex 97.1375 99.0722 0.349999
    endloop
  endfacet
  facet normal -0 0 1
    outer loop
      vertex 96.899 101.798 0.349999
      vertex 96.9872 99.4416 0.349999
      vertex 97.0213 102.178 0.349999
    endloop
  endfacet
  facet normal 0 0 1
    outer loop
      vertex 96.899 101.798 0.349999
      vertex 96.8744 99.8241 0.349999
      vertex 96.9872 99.4416 0.349999
    endloop
  endfacet
  facet normal -0 0 1
    outer loop
      vertex 96.8151 101.408 0.349999
      vertex 96.8744 99.8241 0.349999
      vertex 96.899 101.798 0.349999
    endloop
  endfacet
  facet normal 0 0 1
    outer loop
      vertex 96.8151 101.408 0.349999
      vertex 96.8003 100.216 0.349999
      vertex 96.8744 99.8241 0.349999
    endloop
  endfacet
  facet normal -0 0 1
    outer loop
      vertex 96.7705 101.012 0.349999
      vertex 96.8003 100.216 0.349999
      vertex 96.8151 101.408 0.349999
    endloop
  endfacet
  facet normal 0 0 1
    outer loop
      vertex 96.8003 100.216 0.349999
      vertex 96.7705 101.012 0.349999
      vertex 96.7655 100.613 0.349999
    endloop
  endfacet
  facet normal 0 0 1
    outer loop
      vertex -96.7779 -100.414 0.349999
      vertex -96.7879 -101.211 0.349999
      vertex -96.763 -100.813 0.349999
    endloop
  endfacet
  facet normal 0 0 1
    outer loop
      vertex -96.8325 -100.019 0.349999
      vertex -96.7879 -101.211 0.349999
      vertex -96.7779 -100.414 0.349999
    endloop
  endfacet
  facet normal 0 0 1
    outer loop
      vertex -96.8325 -100.019 0.349999
      vertex -96.8522 -101.604 0.349999
      vertex -96.7879 -101.211 0.349999
    endloop
  endfacet
  facet normal 0 0 1
    outer loop
      vertex -96.9202 -99.6555 0.349999
      vertex -96.8522 -101.604 0.349999
      vertex -96.8325 -100.019 0.349999
    endloop
  endfacet
  facet normal 0 0 1
    outer loop
      vertex -96.8522 -101.604 0.349999
      vertex -96.9202 -99.6555 0.349999
      vertex -96.9554 -101.989 0.349999
    endloop
  endfacet
  facet normal 0.706758 0.707455 0
    outer loop
      vertex 100.056 96.5201 0.349999
      vertex 99.6499 96.9258 -0.349999
      vertex 99.6499 96.9258 0.349999
    endloop
  endfacet
  facet normal 0.706758 0.707455 0
    outer loop
      vertex 99.6499 96.9258 -0.349999
      vertex 100.056 96.5201 0.349999
      vertex 100.056 96.5201 -0.349999
    endloop
  endfacet
  facet normal -0.707107 0.707107 0
    outer loop
      vertex -48.6843 -45.1488 -0.349999
      vertex -2.19203 1.3435 0.349999
      vertex -2.19203 1.3435 -0.349999
    endloop
  endfacet
  facet normal -0.707107 0.707107 0
    outer loop
      vertex -2.19203 1.3435 0.349999
      vertex -48.6843 -45.1488 -0.349999
      vertex -48.6843 -45.1488 0.349999
    endloop
  endfacet
  facet normal -0.707107 0.707107 0
    outer loop
      vertex -0.0707109 3.46482 -0.349999
      vertex 46.4216 49.9571 0.349999
      vertex 46.4216 49.9571 -0.349999
    endloop
  endfacet
  facet normal -0.707107 0.707107 0
    outer loop
      vertex 46.4216 49.9571 0.349999
      vertex -0.0707109 3.46482 -0.349999
      vertex -0.0707109 3.46482 0.349999
    endloop
  endfacet
  facet normal -0.707107 0.707107 0
    outer loop
      vertex 93.7624 97.2979 -0.349999
      vertex 48.5429 52.0784 0.349999
      vertex 93.7624 97.2979 0.349999
    endloop
  endfacet
  facet normal -0.707107 0.707107 0
    outer loop
      vertex 48.5429 52.0784 0.349999
      vertex 93.7624 97.2979 -0.349999
      vertex 48.5429 52.0784 -0.349999
    endloop
  endfacet
  facet normal -0.707107 0.707107 0
    outer loop
      vertex -97.2979 -93.7624 -0.349999
      vertex -50.8056 -47.2701 0.349999
      vertex -50.8056 -47.2701 -0.349999
    endloop
  endfacet
  facet normal -0.707107 0.707107 0
    outer loop
      vertex -50.8056 -47.2701 0.349999
      vertex -97.2979 -93.7624 -0.349999
      vertex -97.2979 -93.7624 0.349999
    endloop
  endfacet
  facet normal 0 0 -1
    outer loop
      vertex -96.7879 -101.211 -0.349999
      vertex -96.7779 -100.414 -0.349999
      vertex -96.763 -100.813 -0.349999
    endloop
  endfacet
  facet normal 0 0 -1
    outer loop
      vertex -96.7879 -101.211 -0.349999
      vertex -96.8325 -100.019 -0.349999
      vertex -96.7779 -100.414 -0.349999
    endloop
  endfacet
  facet normal 0 0 -1
    outer loop
      vertex -96.8522 -101.604 -0.349999
      vertex -96.8325 -100.019 -0.349999
      vertex -96.7879 -101.211 -0.349999
    endloop
  endfacet
  facet normal 0 0 -1
    outer loop
      vertex -96.8522 -101.604 -0.349999
      vertex -96.9202 -99.6555 -0.349999
      vertex -96.8325 -100.019 -0.349999
    endloop
  endfacet
  facet normal 0 -0 -1
    outer loop
      vertex -96.9202 -99.6555 -0.349999
      vertex -96.8522 -101.604 -0.349999
      vertex -96.9554 -101.989 -0.349999
    endloop
  endfacet
  facet normal 0 0 -1
    outer loop
      vertex 99.6499 96.9258 -0.349999
      vertex 99.1631 104.429 -0.349999
      vertex 99.5361 104.57 -0.349999
    endloop
  endfacet
  facet normal 0 0 -1
    outer loop
      vertex 99.6499 96.9258 -0.349999
      vertex 98.8061 104.251 -0.349999
      vertex 99.1631 104.429 -0.349999
    endloop
  endfacet
  facet normal 0 0 -1
    outer loop
      vertex 99.6499 96.9258 -0.349999
      vertex 98.4684 104.039 -0.349999
      vertex 98.8061 104.251 -0.349999
    endloop
  endfacet
  facet normal 0 0 -1
    outer loop
      vertex 99.6499 96.9258 -0.349999
      vertex 98.1536 103.795 -0.349999
      vertex 98.4684 104.039 -0.349999
    endloop
  endfacet
  facet normal 0 0 -1
    outer loop
      vertex 99.6499 96.9258 -0.349999
      vertex 97.8647 103.52 -0.349999
      vertex 98.1536 103.795 -0.349999
    endloop
  endfacet
  facet normal 0 0 -1
    outer loop
      vertex 99.6499 96.9258 -0.349999
      vertex 97.6045 103.217 -0.349999
      vertex 97.8647 103.52 -0.349999
    endloop
  endfacet
  facet normal 0 0 -1
    outer loop
      vertex 99.6499 96.9258 -0.349999
      vertex 97.4575 98.5182 -0.349999
      vertex 97.6045 103.217 -0.349999
    endloop
  endfacet
  facet normal 0 0 -1
    outer loop
      vertex 94.9998 96.0605 -0.349999
      vertex 99.6499 96.9258 -0.349999
      vertex 100.056 96.5201 -0.349999
    endloop
  endfacet
  facet normal -0 0 -1
    outer loop
      vertex 99.6499 96.9258 -0.349999
      vertex 94.9998 96.0605 -0.349999
      vertex 97.4575 98.5182 -0.349999
    endloop
  endfacet
  facet normal -0 0 -1
    outer loop
      vertex 94.9998 96.0605 -0.349999
      vertex 49.7803 50.841 -0.349999
      vertex 93.7624 97.2979 -0.349999
    endloop
  endfacet
  facet normal 0 0 -1
    outer loop
      vertex 100.056 96.5201 -0.349999
      vertex 49.7803 50.841 -0.349999
      vertex 94.9998 96.0605 -0.349999
    endloop
  endfacet
  facet normal 0 0 -1
    outer loop
      vertex 100.056 96.5201 -0.349999
      vertex 47.659 48.7197 -0.349999
      vertex 49.7803 50.841 -0.349999
    endloop
  endfacet
  facet normal -0 0 -1
    outer loop
      vertex 47.659 48.7197 -0.349999
      vertex 1.16673 2.22739 -0.349999
      vertex 46.4216 49.9571 -0.349999
    endloop
  endfacet
  facet normal 0 0 -1
    outer loop
      vertex 100.056 96.5201 -0.349999
      vertex 1.16673 2.22739 -0.349999
      vertex 47.659 48.7197 -0.349999
    endloop
  endfacet
  facet normal 0 0 -1
    outer loop
      vertex 100.056 96.5201 -0.349999
      vertex -0.954594 0.106066 -0.349999
      vertex 1.16673 2.22739 -0.349999
    endloop
  endfacet
  facet normal -0 0 -1
    outer loop
      vertex -0.954594 0.106066 -0.349999
      vertex -47.4469 -46.3862 -0.349999
      vertex -2.19203 1.3435 -0.349999
    endloop
  endfacet
  facet normal 0 0 -1
    outer loop
      vertex -96.5201 -100.056 -0.349999
      vertex -0.954594 0.106066 -0.349999
      vertex 100.056 96.5201 -0.349999
    endloop
  endfacet
  facet normal 0 0 -1
    outer loop
      vertex -0.954594 0.106066 -0.349999
      vertex -96.5201 -100.056 -0.349999
      vertex -47.4469 -46.3862 -0.349999
    endloop
  endfacet
  facet normal -0 0 -1
    outer loop
      vertex -49.5682 -48.5075 -0.349999
      vertex -96.0605 -94.9998 -0.349999
      vertex -50.8056 -47.2701 -0.349999
    endloop
  endfacet
  facet normal 0 0 -1
    outer loop
      vertex -47.4469 -46.3862 -0.349999
      vertex -96.5201 -100.056 -0.349999
      vertex -49.5682 -48.5075 -0.349999
    endloop
  endfacet
  facet normal 0 0 -1
    outer loop
      vertex -49.5682 -48.5075 -0.349999
      vertex -96.5201 -100.056 -0.349999
      vertex -96.0605 -94.9998 -0.349999
    endloop
  endfacet
  facet normal 0 0 -1
    outer loop
      vertex -96.9202 -99.6555 -0.349999
      vertex -96.0605 -94.9998 -0.349999
      vertex -96.5201 -100.056 -0.349999
    endloop
  endfacet
  facet normal 0 0 -1
    outer loop
      vertex -97.0965 -102.362 -0.349999
      vertex -96.9202 -99.6555 -0.349999
      vertex -96.9554 -101.989 -0.349999
    endloop
  endfacet
  facet normal 0 0 -1
    outer loop
      vertex -97.2739 -102.719 -0.349999
      vertex -96.9202 -99.6555 -0.349999
      vertex -97.0965 -102.362 -0.349999
    endloop
  endfacet
  facet normal 0 0 -1
    outer loop
      vertex -97.4861 -103.057 -0.349999
      vertex -96.9202 -99.6555 -0.349999
      vertex -97.2739 -102.719 -0.349999
    endloop
  endfacet
  facet normal 0 0 -1
    outer loop
      vertex -97.7308 -103.372 -0.349999
      vertex -96.9202 -99.6555 -0.349999
      vertex -97.4861 -103.057 -0.349999
    endloop
  endfacet
  facet normal 0 0 -1
    outer loop
      vertex -98.5162 -97.4555 -0.349999
      vertex -96.9202 -99.6555 -0.349999
      vertex -97.7308 -103.372 -0.349999
    endloop
  endfacet
  facet normal 0 0 -1
    outer loop
      vertex -98.5162 -97.4555 -0.349999
      vertex -97.7308 -103.372 -0.349999
      vertex -98.0057 -103.661 -0.349999
    endloop
  endfacet
  facet normal 0 0 -1
    outer loop
      vertex -98.5162 -97.4555 -0.349999
      vertex -98.0057 -103.661 -0.349999
      vertex -98.3079 -103.921 -0.349999
    endloop
  endfacet
  facet normal 0 0 -1
    outer loop
      vertex -96.9202 -99.6555 -0.349999
      vertex -98.5162 -97.4555 -0.349999
      vertex -96.0605 -94.9998 -0.349999
    endloop
  endfacet
  facet normal 0 0 -1
    outer loop
      vertex -98.6346 -104.15 -0.349999
      vertex -98.5162 -97.4555 -0.349999
      vertex -98.3079 -103.921 -0.349999
    endloop
  endfacet
  facet normal 0 0 -1
    outer loop
      vertex -98.8936 -97.2263 -0.349999
      vertex -98.5162 -97.4555 -0.349999
      vertex -98.6346 -104.15 -0.349999
    endloop
  endfacet
  facet normal 0 0 -1
    outer loop
      vertex -98.5162 -97.4555 -0.349999
      vertex -98.8936 -97.2263 -0.349999
      vertex -98.5508 -97.4299 -0.349999
    endloop
  endfacet
  facet normal 0 0 -1
    outer loop
      vertex -98.9824 -104.345 -0.349999
      vertex -98.8936 -97.2263 -0.349999
      vertex -98.6346 -104.15 -0.349999
    endloop
  endfacet
  facet normal 0 0 -1
    outer loop
      vertex -98.9824 -104.345 -0.349999
      vertex -99.255 -97.0577 -0.349999
      vertex -98.8936 -97.2263 -0.349999
    endloop
  endfacet
  facet normal 0 0 -1
    outer loop
      vertex -99.3479 -104.504 -0.349999
      vertex -99.255 -97.0577 -0.349999
      vertex -98.9824 -104.345 -0.349999
    endloop
  endfacet
  facet normal 0 0 -1
    outer loop
      vertex -99.3479 -104.504 -0.349999
      vertex -99.6314 -96.926 -0.349999
      vertex -99.255 -97.0577 -0.349999
    endloop
  endfacet
  facet normal 0 0 -1
    outer loop
      vertex -99.7274 -104.626 -0.349999
      vertex -99.6314 -96.926 -0.349999
      vertex -99.3479 -104.504 -0.349999
    endloop
  endfacet
  facet normal 0 0 -1
    outer loop
      vertex -99.7274 -104.626 -0.349999
      vertex -100.019 -96.8325 -0.349999
      vertex -99.6314 -96.926 -0.349999
    endloop
  endfacet
  facet normal 0 0 -1
    outer loop
      vertex -100.117 -104.71 -0.349999
      vertex -100.019 -96.8325 -0.349999
      vertex -99.7274 -104.626 -0.349999
    endloop
  endfacet
  facet normal 0 0 -1
    outer loop
      vertex -100.117 -104.71 -0.349999
      vertex -100.414 -96.7779 -0.349999
      vertex -100.019 -96.8325 -0.349999
    endloop
  endfacet
  facet normal 0 0 -1
    outer loop
      vertex -100.514 -104.755 -0.349999
      vertex -100.414 -96.7779 -0.349999
      vertex -100.117 -104.71 -0.349999
    endloop
  endfacet
  facet normal 0 0 -1
    outer loop
      vertex -100.514 -104.755 -0.349999
      vertex -100.813 -96.763 -0.349999
      vertex -100.414 -96.7779 -0.349999
    endloop
  endfacet
  facet normal 0 0 -1
    outer loop
      vertex -100.912 -104.76 -0.349999
      vertex -100.813 -96.763 -0.349999
      vertex -100.514 -104.755 -0.349999
    endloop
  endfacet
  facet normal 0 0 -1
    outer loop
      vertex -100.912 -104.76 -0.349999
      vertex -101.211 -96.7879 -0.349999
      vertex -100.813 -96.763 -0.349999
    endloop
  endfacet
  facet normal 0 0 -1
    outer loop
      vertex -101.31 -104.725 -0.349999
      vertex -101.211 -96.7879 -0.349999
      vertex -100.912 -104.76 -0.349999
    endloop
  endfacet
  facet normal 0 0 -1
    outer loop
      vertex -101.31 -104.725 -0.349999
      vertex -101.604 -96.8522 -0.349999
      vertex -101.211 -96.7879 -0.349999
    endloop
  endfacet
  facet normal 0 0 -1
    outer loop
      vertex -101.701 -104.651 -0.349999
      vertex -101.604 -96.8522 -0.349999
      vertex -101.31 -104.725 -0.349999
    endloop
  endfacet
  facet normal 0 0 -1
    outer loop
      vertex -101.701 -104.651 -0.349999
      vertex -101.989 -96.9554 -0.349999
      vertex -101.604 -96.8522 -0.349999
    endloop
  endfacet
  facet normal 0 0 -1
    outer loop
      vertex -102.084 -104.538 -0.349999
      vertex -101.989 -96.9554 -0.349999
      vertex -101.701 -104.651 -0.349999
    endloop
  endfacet
  facet normal 0 0 -1
    outer loop
      vertex -102.084 -104.538 -0.349999
      vertex -102.362 -97.0965 -0.349999
      vertex -101.989 -96.9554 -0.349999
    endloop
  endfacet
  facet normal 0 0 -1
    outer loop
      vertex -102.453 -104.388 -0.349999
      vertex -102.362 -97.0965 -0.349999
      vertex -102.084 -104.538 -0.349999
    endloop
  endfacet
  facet normal 0 0 -1
    outer loop
      vertex -102.453 -104.388 -0.349999
      vertex -102.719 -97.2739 -0.349999
      vertex -102.362 -97.0965 -0.349999
    endloop
  endfacet
  facet normal 0 0 -1
    outer loop
      vertex -102.806 -104.202 -0.349999
      vertex -102.719 -97.2739 -0.349999
      vertex -102.453 -104.388 -0.349999
    endloop
  endfacet
  facet normal 0 0 -1
    outer loop
      vertex -102.806 -104.202 -0.349999
      vertex -103.057 -97.4861 -0.349999
      vertex -102.719 -97.2739 -0.349999
    endloop
  endfacet
  facet normal 0 0 -1
    outer loop
      vertex -103.138 -103.981 -0.349999
      vertex -103.057 -97.4861 -0.349999
      vertex -102.806 -104.202 -0.349999
    endloop
  endfacet
  facet normal 0 0 -1
    outer loop
      vertex -103.138 -103.981 -0.349999
      vertex -103.372 -97.7308 -0.349999
      vertex -103.057 -97.4861 -0.349999
    endloop
  endfacet
  facet normal 0 0 -1
    outer loop
      vertex -103.447 -103.729 -0.349999
      vertex -103.372 -97.7308 -0.349999
      vertex -103.138 -103.981 -0.349999
    endloop
  endfacet
  facet normal 0 0 -1
    outer loop
      vertex -103.447 -103.729 -0.349999
      vertex -103.661 -98.0057 -0.349999
      vertex -103.372 -97.7308 -0.349999
    endloop
  endfacet
  facet normal 0 0 -1
    outer loop
      vertex -103.729 -103.447 -0.349999
      vertex -103.661 -98.0057 -0.349999
      vertex -103.447 -103.729 -0.349999
    endloop
  endfacet
  facet normal 0 0 -1
    outer loop
      vertex -103.729 -103.447 -0.349999
      vertex -103.921 -98.3079 -0.349999
      vertex -103.661 -98.0057 -0.349999
    endloop
  endfacet
  facet normal 0 0 -1
    outer loop
      vertex -103.981 -103.138 -0.349999
      vertex -103.921 -98.3079 -0.349999
      vertex -103.729 -103.447 -0.349999
    endloop
  endfacet
  facet normal 0 0 -1
    outer loop
      vertex -103.981 -103.138 -0.349999
      vertex -104.15 -98.6346 -0.349999
      vertex -103.921 -98.3079 -0.349999
    endloop
  endfacet
  facet normal 0 0 -1
    outer loop
      vertex -104.202 -102.806 -0.349999
      vertex -104.15 -98.6346 -0.349999
      vertex -103.981 -103.138 -0.349999
    endloop
  endfacet
  facet normal 0 0 -1
    outer loop
      vertex -104.202 -102.806 -0.349999
      vertex -104.345 -98.9824 -0.349999
      vertex -104.15 -98.6346 -0.349999
    endloop
  endfacet
  facet normal 0 0 -1
    outer loop
      vertex -104.388 -102.453 -0.349999
      vertex -104.345 -98.9824 -0.349999
      vertex -104.202 -102.806 -0.349999
    endloop
  endfacet
  facet normal 0 0 -1
    outer loop
      vertex -104.388 -102.453 -0.349999
      vertex -104.504 -99.3479 -0.349999
      vertex -104.345 -98.9824 -0.349999
    endloop
  endfacet
  facet normal 0 0 -1
    outer loop
      vertex -104.538 -102.084 -0.349999
      vertex -104.504 -99.3479 -0.349999
      vertex -104.388 -102.453 -0.349999
    endloop
  endfacet
  facet normal 0 0 -1
    outer loop
      vertex -104.538 -102.084 -0.349999
      vertex -104.626 -99.7274 -0.349999
      vertex -104.504 -99.3479 -0.349999
    endloop
  endfacet
  facet normal 0 0 -1
    outer loop
      vertex -104.651 -101.701 -0.349999
      vertex -104.626 -99.7274 -0.349999
      vertex -104.538 -102.084 -0.349999
    endloop
  endfacet
  facet normal 0 0 -1
    outer loop
      vertex -104.651 -101.701 -0.349999
      vertex -104.71 -100.117 -0.349999
      vertex -104.626 -99.7274 -0.349999
    endloop
  endfacet
  facet normal 0 0 -1
    outer loop
      vertex -104.725 -101.31 -0.349999
      vertex -104.71 -100.117 -0.349999
      vertex -104.651 -101.701 -0.349999
    endloop
  endfacet
  facet normal 0 0 -1
    outer loop
      vertex -104.725 -101.31 -0.349999
      vertex -104.755 -100.514 -0.349999
      vertex -104.71 -100.117 -0.349999
    endloop
  endfacet
  facet normal 0 -0 -1
    outer loop
      vertex -104.755 -100.514 -0.349999
      vertex -104.725 -101.31 -0.349999
      vertex -104.76 -100.912 -0.349999
    endloop
  endfacet
  facet normal 0 0 -1
    outer loop
      vertex 104.738 100.315 -0.349999
      vertex 104.747 101.111 -0.349999
      vertex 104.762 100.713 -0.349999
    endloop
  endfacet
  facet normal 0 0 -1
    outer loop
      vertex 104.738 100.315 -0.349999
      vertex 104.693 101.506 -0.349999
      vertex 104.747 101.111 -0.349999
    endloop
  endfacet
  facet normal 0 0 -1
    outer loop
      vertex 104.673 99.9213 -0.349999
      vertex 104.693 101.506 -0.349999
      vertex 104.738 100.315 -0.349999
    endloop
  endfacet
  facet normal 0 0 -1
    outer loop
      vertex 104.673 99.9213 -0.349999
      vertex 104.599 101.894 -0.349999
      vertex 104.693 101.506 -0.349999
    endloop
  endfacet
  facet normal 0 0 -1
    outer loop
      vertex 104.57 99.5361 -0.349999
      vertex 104.599 101.894 -0.349999
      vertex 104.673 99.9213 -0.349999
    endloop
  endfacet
  facet normal 0 0 -1
    outer loop
      vertex 104.57 99.5361 -0.349999
      vertex 104.468 102.27 -0.349999
      vertex 104.599 101.894 -0.349999
    endloop
  endfacet
  facet normal 0 0 -1
    outer loop
      vertex 104.429 99.1631 -0.349999
      vertex 104.468 102.27 -0.349999
      vertex 104.57 99.5361 -0.349999
    endloop
  endfacet
  facet normal 0 0 -1
    outer loop
      vertex 104.429 99.1631 -0.349999
      vertex 104.299 102.632 -0.349999
      vertex 104.468 102.27 -0.349999
    endloop
  endfacet
  facet normal 0 0 -1
    outer loop
      vertex 104.251 98.8061 -0.349999
      vertex 104.299 102.632 -0.349999
      vertex 104.429 99.1631 -0.349999
    endloop
  endfacet
  facet normal 0 0 -1
    outer loop
      vertex 104.251 98.8061 -0.349999
      vertex 104.096 102.975 -0.349999
      vertex 104.299 102.632 -0.349999
    endloop
  endfacet
  facet normal 0 0 -1
    outer loop
      vertex 104.039 98.4684 -0.349999
      vertex 104.096 102.975 -0.349999
      vertex 104.251 98.8061 -0.349999
    endloop
  endfacet
  facet normal 0 0 -1
    outer loop
      vertex 104.039 98.4684 -0.349999
      vertex 103.859 103.295 -0.349999
      vertex 104.096 102.975 -0.349999
    endloop
  endfacet
  facet normal 0 0 -1
    outer loop
      vertex 103.795 98.1536 -0.349999
      vertex 103.859 103.295 -0.349999
      vertex 104.039 98.4684 -0.349999
    endloop
  endfacet
  facet normal 0 0 -1
    outer loop
      vertex 103.795 98.1536 -0.349999
      vertex 103.591 103.591 -0.349999
      vertex 103.859 103.295 -0.349999
    endloop
  endfacet
  facet normal 0 0 -1
    outer loop
      vertex 103.52 97.8647 -0.349999
      vertex 103.591 103.591 -0.349999
      vertex 103.795 98.1536 -0.349999
    endloop
  endfacet
  facet normal 0 0 -1
    outer loop
      vertex 103.52 97.8647 -0.349999
      vertex 103.295 103.859 -0.349999
      vertex 103.591 103.591 -0.349999
    endloop
  endfacet
  facet normal 0 0 -1
    outer loop
      vertex 103.217 97.6045 -0.349999
      vertex 103.295 103.859 -0.349999
      vertex 103.52 97.8647 -0.349999
    endloop
  endfacet
  facet normal 0 0 -1
    outer loop
      vertex 103.217 97.6045 -0.349999
      vertex 102.975 104.096 -0.349999
      vertex 103.295 103.859 -0.349999
    endloop
  endfacet
  facet normal 0 0 -1
    outer loop
      vertex 102.891 97.3758 -0.349999
      vertex 102.975 104.096 -0.349999
      vertex 103.217 97.6045 -0.349999
    endloop
  endfacet
  facet normal 0 0 -1
    outer loop
      vertex 102.891 97.3758 -0.349999
      vertex 102.632 104.299 -0.349999
      vertex 102.975 104.096 -0.349999
    endloop
  endfacet
  facet normal 0 0 -1
    outer loop
      vertex 102.543 97.1808 -0.349999
      vertex 102.632 104.299 -0.349999
      vertex 102.891 97.3758 -0.349999
    endloop
  endfacet
  facet normal 0 0 -1
    outer loop
      vertex 102.543 97.1808 -0.349999
      vertex 102.27 104.468 -0.349999
      vertex 102.632 104.299 -0.349999
    endloop
  endfacet
  facet normal 0 0 -1
    outer loop
      vertex 102.178 97.0213 -0.349999
      vertex 102.27 104.468 -0.349999
      vertex 102.543 97.1808 -0.349999
    endloop
  endfacet
  facet normal 0 0 -1
    outer loop
      vertex 102.178 97.0213 -0.349999
      vertex 101.894 104.599 -0.349999
      vertex 102.27 104.468 -0.349999
    endloop
  endfacet
  facet normal 0 0 -1
    outer loop
      vertex 101.798 96.899 -0.349999
      vertex 101.894 104.599 -0.349999
      vertex 102.178 97.0213 -0.349999
    endloop
  endfacet
  facet normal 0 0 -1
    outer loop
      vertex 101.798 96.899 -0.349999
      vertex 101.506 104.693 -0.349999
      vertex 101.894 104.599 -0.349999
    endloop
  endfacet
  facet normal 0 0 -1
    outer loop
      vertex 101.408 96.8151 -0.349999
      vertex 101.506 104.693 -0.349999
      vertex 101.798 96.899 -0.349999
    endloop
  endfacet
  facet normal 0 0 -1
    outer loop
      vertex 101.408 96.8151 -0.349999
      vertex 101.111 104.747 -0.349999
      vertex 101.506 104.693 -0.349999
    endloop
  endfacet
  facet normal 0 0 -1
    outer loop
      vertex 101.012 96.7705 -0.349999
      vertex 101.111 104.747 -0.349999
      vertex 101.408 96.8151 -0.349999
    endloop
  endfacet
  facet normal 0 0 -1
    outer loop
      vertex 101.012 96.7705 -0.349999
      vertex 100.713 104.762 -0.349999
      vertex 101.111 104.747 -0.349999
    endloop
  endfacet
  facet normal 0 0 -1
    outer loop
      vertex 100.613 96.7655 -0.349999
      vertex 100.713 104.762 -0.349999
      vertex 101.012 96.7705 -0.349999
    endloop
  endfacet
  facet normal 0 0 -1
    outer loop
      vertex 100.613 96.7655 -0.349999
      vertex 100.315 104.738 -0.349999
      vertex 100.713 104.762 -0.349999
    endloop
  endfacet
  facet normal 0 0 -1
    outer loop
      vertex 100.216 96.8003 -0.349999
      vertex 100.315 104.738 -0.349999
      vertex 100.613 96.7655 -0.349999
    endloop
  endfacet
  facet normal 0 0 -1
    outer loop
      vertex 100.216 96.8003 -0.349999
      vertex 99.9213 104.673 -0.349999
      vertex 100.315 104.738 -0.349999
    endloop
  endfacet
  facet normal 0 0 -1
    outer loop
      vertex 99.6499 96.9258 -0.349999
      vertex 100.216 96.8003 -0.349999
      vertex 99.8241 96.8744 -0.349999
    endloop
  endfacet
  facet normal 0 0 -1
    outer loop
      vertex 100.216 96.8003 -0.349999
      vertex 99.6499 96.9258 -0.349999
      vertex 99.9213 104.673 -0.349999
    endloop
  endfacet
  facet normal 0 0 -1
    outer loop
      vertex 99.9213 104.673 -0.349999
      vertex 99.6499 96.9258 -0.349999
      vertex 99.5361 104.57 -0.349999
    endloop
  endfacet
  facet normal 0 0 -1
    outer loop
      vertex 97.4575 98.5182 -0.349999
      vertex 97.3758 102.891 -0.349999
      vertex 97.6045 103.217 -0.349999
    endloop
  endfacet
  facet normal 0 0 -1
    outer loop
      vertex 97.1375 99.0722 -0.349999
      vertex 97.4575 98.5182 -0.349999
      vertex 97.3238 98.7197 -0.349999
    endloop
  endfacet
  facet normal 0 0 -1
    outer loop
      vertex 97.4575 98.5182 -0.349999
      vertex 97.1808 102.543 -0.349999
      vertex 97.3758 102.891 -0.349999
    endloop
  endfacet
  facet normal 0 0 -1
    outer loop
      vertex 97.4575 98.5182 -0.349999
      vertex 97.1375 99.0722 -0.349999
      vertex 97.1808 102.543 -0.349999
    endloop
  endfacet
  facet normal 0 0 -1
    outer loop
      vertex 97.1375 99.0722 -0.349999
      vertex 97.0213 102.178 -0.349999
      vertex 97.1808 102.543 -0.349999
    endloop
  endfacet
  facet normal 0 0 -1
    outer loop
      vertex 96.9872 99.4416 -0.349999
      vertex 97.0213 102.178 -0.349999
      vertex 97.1375 99.0722 -0.349999
    endloop
  endfacet
  facet normal 0 0 -1
    outer loop
      vertex 96.9872 99.4416 -0.349999
      vertex 96.899 101.798 -0.349999
      vertex 97.0213 102.178 -0.349999
    endloop
  endfacet
  facet normal 0 0 -1
    outer loop
      vertex 96.8744 99.8241 -0.349999
      vertex 96.899 101.798 -0.349999
      vertex 96.9872 99.4416 -0.349999
    endloop
  endfacet
  facet normal 0 0 -1
    outer loop
      vertex 96.8744 99.8241 -0.349999
      vertex 96.8151 101.408 -0.349999
      vertex 96.899 101.798 -0.349999
    endloop
  endfacet
  facet normal 0 0 -1
    outer loop
      vertex 96.8003 100.216 -0.349999
      vertex 96.8151 101.408 -0.349999
      vertex 96.8744 99.8241 -0.349999
    endloop
  endfacet
  facet normal 0 0 -1
    outer loop
      vertex 96.8003 100.216 -0.349999
      vertex 96.7705 101.012 -0.349999
      vertex 96.8151 101.408 -0.349999
    endloop
  endfacet
  facet normal 0 -0 -1
    outer loop
      vertex 96.7705 101.012 -0.349999
      vertex 96.8003 100.216 -0.349999
      vertex 96.7655 100.613 -0.349999
    endloop
  endfacet
  facet normal 0 0 -1
    outer loop
      vertex 93.7624 97.2979 -0.349999
      vertex 49.7803 50.841 -0.349999
      vertex 48.5429 52.0784 -0.349999
    endloop
  endfacet
  facet normal 0 0 -1
    outer loop
      vertex 46.4216 49.9571 -0.349999
      vertex 1.16673 2.22739 -0.349999
      vertex -0.0707109 3.46482 -0.349999
    endloop
  endfacet
  facet normal 0 0 -1
    outer loop
      vertex -2.19203 1.3435 -0.349999
      vertex -47.4469 -46.3862 -0.349999
      vertex -48.6843 -45.1488 -0.349999
    endloop
  endfacet
  facet normal 0 0 -1
    outer loop
      vertex -50.8056 -47.2701 -0.349999
      vertex -96.0605 -94.9998 -0.349999
      vertex -97.2979 -93.7624 -0.349999
    endloop
  endfacet
  facet normal 0.707107 -0.707107 0
    outer loop
      vertex -96.5201 -100.056 0.349999
      vertex 100.056 96.5201 -0.349999
      vertex 100.056 96.5201 0.349999
    endloop
  endfacet
  facet normal 0.707107 -0.707107 0
    outer loop
      vertex 100.056 96.5201 -0.349999
      vertex -96.5201 -100.056 0.349999
      vertex -96.5201 -100.056 -0.349999
    endloop
  endfacet
  facet normal 0.707106 0.707107 -0
    outer loop
      vertex -0.954594 0.106066 -0.349999
      vertex -2.19203 1.3435 0.349999
      vertex -0.954594 0.106066 0.349999
    endloop
  endfacet
  facet normal 0.707106 0.707107 0
    outer loop
      vertex -2.19203 1.3435 0.349999
      vertex -0.954594 0.106066 -0.349999
      vertex -2.19203 1.3435 -0.349999
    endloop
  endfacet
  facet normal -0.707104 -0.70711 0
    outer loop
      vertex 1.16673 2.22739 -0.349999
      vertex -0.0707109 3.46482 0.349999
      vertex -0.0707109 3.46482 -0.349999
    endloop
  endfacet
  facet normal -0.707104 -0.70711 0
    outer loop
      vertex -0.0707109 3.46482 0.349999
      vertex 1.16673 2.22739 -0.349999
      vertex 1.16673 2.22739 0.349999
    endloop
  endfacet
  facet normal -0.707107 0.707107 0
    outer loop
      vertex 1.16673 2.22739 -0.349999
      vertex -0.954594 0.106066 0.349999
      vertex 1.16673 2.22739 0.349999
    endloop
  endfacet
  facet normal -0.707107 0.707107 0
    outer loop
      vertex -0.954594 0.106066 0.349999
      vertex 1.16673 2.22739 -0.349999
      vertex -0.954594 0.106066 -0.349999
    endloop
  endfacet
  facet normal 0.707107 0.707107 -0
    outer loop
      vertex 47.659 48.7197 -0.349999
      vertex 46.4216 49.9571 0.349999
      vertex 47.659 48.7197 0.349999
    endloop
  endfacet
  facet normal 0.707107 0.707107 0
    outer loop
      vertex 46.4216 49.9571 0.349999
      vertex 47.659 48.7197 -0.349999
      vertex 46.4216 49.9571 -0.349999
    endloop
  endfacet
  facet normal -0.707107 -0.707107 0
    outer loop
      vertex 49.7803 50.841 -0.349999
      vertex 48.5429 52.0784 0.349999
      vertex 48.5429 52.0784 -0.349999
    endloop
  endfacet
  facet normal -0.707107 -0.707107 0
    outer loop
      vertex 48.5429 52.0784 0.349999
      vertex 49.7803 50.841 -0.349999
      vertex 49.7803 50.841 0.349999
    endloop
  endfacet
  facet normal -0.707107 0.707107 0
    outer loop
      vertex 47.659 48.7197 -0.349999
      vertex 49.7803 50.841 0.349999
      vertex 49.7803 50.841 -0.349999
    endloop
  endfacet
  facet normal -0.707107 0.707107 0
    outer loop
      vertex 49.7803 50.841 0.349999
      vertex 47.659 48.7197 -0.349999
      vertex 47.659 48.7197 0.349999
    endloop
  endfacet
  facet normal 0.707107 0.707107 0
    outer loop
      vertex 94.9998 96.0605 0.349999
      vertex 93.7624 97.2979 -0.349999
      vertex 93.7624 97.2979 0.349999
    endloop
  endfacet
  facet normal 0.707107 0.707107 0
    outer loop
      vertex 93.7624 97.2979 -0.349999
      vertex 94.9998 96.0605 0.349999
      vertex 94.9998 96.0605 -0.349999
    endloop
  endfacet
  facet normal -0.707107 0.707107 0
    outer loop
      vertex 97.4575 98.5182 -0.349999
      vertex 94.9998 96.0605 0.349999
      vertex 97.4575 98.5182 0.349999
    endloop
  endfacet
  facet normal -0.707107 0.707107 0
    outer loop
      vertex 94.9998 96.0605 0.349999
      vertex 97.4575 98.5182 -0.349999
      vertex 94.9998 96.0605 -0.349999
    endloop
  endfacet
  facet normal 0.707107 0.707107 0
    outer loop
      vertex -49.5682 -48.5075 0.349999
      vertex -50.8056 -47.2701 -0.349999
      vertex -50.8056 -47.2701 0.349999
    endloop
  endfacet
  facet normal 0.707107 0.707107 0
    outer loop
      vertex -50.8056 -47.2701 -0.349999
      vertex -49.5682 -48.5075 0.349999
      vertex -49.5682 -48.5075 -0.349999
    endloop
  endfacet
  facet normal -0.707107 -0.707107 0
    outer loop
      vertex -48.6843 -45.1488 -0.349999
      vertex -47.4469 -46.3862 0.349999
      vertex -48.6843 -45.1488 0.349999
    endloop
  endfacet
  facet normal -0.707107 -0.707107 -0
    outer loop
      vertex -47.4469 -46.3862 0.349999
      vertex -48.6843 -45.1488 -0.349999
      vertex -47.4469 -46.3862 -0.349999
    endloop
  endfacet
  facet normal -0.707107 0.707107 0
    outer loop
      vertex -49.5682 -48.5075 -0.349999
      vertex -47.4469 -46.3862 0.349999
      vertex -47.4469 -46.3862 -0.349999
    endloop
  endfacet
  facet normal -0.707107 0.707107 0
    outer loop
      vertex -47.4469 -46.3862 0.349999
      vertex -49.5682 -48.5075 -0.349999
      vertex -49.5682 -48.5075 0.349999
    endloop
  endfacet
  facet normal -0.707107 -0.707107 0
    outer loop
      vertex -96.0605 -94.9998 -0.349999
      vertex -97.2979 -93.7624 0.349999
      vertex -97.2979 -93.7624 -0.349999
    endloop
  endfacet
  facet normal -0.707107 -0.707107 0
    outer loop
      vertex -97.2979 -93.7624 0.349999
      vertex -96.0605 -94.9998 -0.349999
      vertex -96.0605 -94.9998 0.349999
    endloop
  endfacet
  facet normal -0.707107 0.707107 0
    outer loop
      vertex -98.5162 -97.4555 -0.349999
      vertex -96.0605 -94.9998 0.349999
      vertex -96.0605 -94.9998 -0.349999
    endloop
  endfacet
  facet normal -0.707107 0.707107 0
    outer loop
      vertex -96.0605 -94.9998 0.349999
      vertex -98.5162 -97.4555 -0.349999
      vertex -98.5162 -97.4555 0.349999
    endloop
  endfacet
  facet normal 0.235457 0.971885 -0
    outer loop
      vertex 101.894 104.599 -0.349999
      vertex 101.506 104.693 0.349999
      vertex 101.894 104.599 0.349999
    endloop
  endfacet
  facet normal 0.235457 0.971885 0
    outer loop
      vertex 101.506 104.693 0.349999
      vertex 101.894 104.599 -0.349999
      vertex 101.506 104.693 -0.349999
    endloop
  endfacet
  facet normal -0.353596 0.935398 0
    outer loop
      vertex 99.5361 104.57 -0.349999
      vertex 99.1631 104.429 0.349999
      vertex 99.5361 104.57 0.349999
    endloop
  endfacet
  facet normal -0.353596 0.935398 0
    outer loop
      vertex 99.1631 104.429 0.349999
      vertex 99.5361 104.57 -0.349999
      vertex 99.1631 104.429 -0.349999
    endloop
  endfacet
  facet normal -0.91633 0.400424 0
    outer loop
      vertex 97.0213 102.178 -0.349999
      vertex 97.1808 102.543 0.349999
      vertex 97.1808 102.543 -0.349999
    endloop
  endfacet
  facet normal -0.91633 0.400424 0
    outer loop
      vertex 97.1808 102.543 0.349999
      vertex 97.0213 102.178 -0.349999
      vertex 97.0213 102.178 0.349999
    endloop
  endfacet
  facet normal -0.926264 -0.376875 0
    outer loop
      vertex 97.1375 99.0722 -0.349999
      vertex 96.9872 99.4416 0.349999
      vertex 96.9872 99.4416 -0.349999
    endloop
  endfacet
  facet normal -0.926264 -0.376875 0
    outer loop
      vertex 96.9872 99.4416 0.349999
      vertex 97.1375 99.0722 -0.349999
      vertex 97.1375 99.0722 0.349999
    endloop
  endfacet
  facet normal 0.741298 0.671176 0
    outer loop
      vertex 103.859 103.295 0.349999
      vertex 103.591 103.591 -0.349999
      vertex 103.591 103.591 0.349999
    endloop
  endfacet
  facet normal 0.741298 0.671176 0
    outer loop
      vertex 103.591 103.591 -0.349999
      vertex 103.859 103.295 0.349999
      vertex 103.859 103.295 -0.349999
    endloop
  endfacet
  facet normal 0.935398 -0.353596 0
    outer loop
      vertex 104.429 99.1631 0.349999
      vertex 104.57 99.5361 -0.349999
      vertex 104.57 99.5361 0.349999
    endloop
  endfacet
  facet normal 0.935398 -0.353596 0
    outer loop
      vertex 104.57 99.5361 -0.349999
      vertex 104.429 99.1631 0.349999
      vertex 104.429 99.1631 -0.349999
    endloop
  endfacet
  facet normal 0.0376617 0.999291 -0
    outer loop
      vertex 101.111 104.747 -0.349999
      vertex 100.713 104.762 0.349999
      vertex 101.111 104.747 0.349999
    endloop
  endfacet
  facet normal 0.0376617 0.999291 0
    outer loop
      vertex 100.713 104.762 0.349999
      vertex 101.111 104.747 -0.349999
      vertex 100.713 104.762 -0.349999
    endloop
  endfacet
  facet normal -0.531689 0.84694 0
    outer loop
      vertex 98.8061 104.251 -0.349999
      vertex 98.4684 104.039 0.349999
      vertex 98.8061 104.251 0.349999
    endloop
  endfacet
  facet normal -0.531689 0.84694 0
    outer loop
      vertex 98.4684 104.039 0.349999
      vertex 98.8061 104.251 -0.349999
      vertex 98.4684 104.039 -0.349999
    endloop
  endfacet
  facet normal -0.993717 0.111919 0
    outer loop
      vertex 96.7705 101.012 -0.349999
      vertex 96.8151 101.408 0.349999
      vertex 96.8151 101.408 -0.349999
    endloop
  endfacet
  facet normal -0.993717 0.111919 0
    outer loop
      vertex 96.8151 101.408 0.349999
      vertex 96.7705 101.012 -0.349999
      vertex 96.7705 101.012 0.349999
    endloop
  endfacet
  facet normal 0.595167 0.803602 -0
    outer loop
      vertex 103.295 103.859 -0.349999
      vertex 102.975 104.096 0.349999
      vertex 103.295 103.859 0.349999
    endloop
  endfacet
  facet normal 0.595167 0.803602 0
    outer loop
      vertex 102.975 104.096 0.349999
      vertex 103.295 103.859 -0.349999
      vertex 102.975 104.096 -0.349999
    endloop
  endfacet
  facet normal 0.135449 0.990784 -0
    outer loop
      vertex 101.506 104.693 -0.349999
      vertex 101.111 104.747 0.349999
      vertex 101.506 104.693 0.349999
    endloop
  endfacet
  facet normal 0.135449 0.990784 0
    outer loop
      vertex 101.111 104.747 0.349999
      vertex 101.506 104.693 -0.349999
      vertex 101.111 104.747 -0.349999
    endloop
  endfacet
  facet normal -0.689467 0.724317 0
    outer loop
      vertex 98.1536 103.795 -0.349999
      vertex 97.8647 103.52 0.349999
      vertex 98.1536 103.795 0.349999
    endloop
  endfacet
  facet normal -0.689467 0.724317 0
    outer loop
      vertex 97.8647 103.52 0.349999
      vertex 98.1536 103.795 -0.349999
      vertex 97.8647 103.52 -0.349999
    endloop
  endfacet
  facet normal -0.612619 0.790379 0
    outer loop
      vertex 98.4684 104.039 -0.349999
      vertex 98.1536 103.795 0.349999
      vertex 98.4684 104.039 0.349999
    endloop
  endfacet
  facet normal -0.612619 0.790379 0
    outer loop
      vertex 98.1536 103.795 0.349999
      vertex 98.4684 104.039 -0.349999
      vertex 98.1536 103.795 -0.349999
    endloop
  endfacet
  facet normal -0.446211 0.894928 0
    outer loop
      vertex 99.1631 104.429 -0.349999
      vertex 98.8061 104.251 0.349999
      vertex 99.1631 104.429 0.349999
    endloop
  endfacet
  facet normal -0.446211 0.894928 0
    outer loop
      vertex 98.8061 104.251 0.349999
      vertex 99.1631 104.429 -0.349999
      vertex 98.8061 104.251 -0.349999
    endloop
  endfacet
  facet normal -0.0601922 0.998187 0
    outer loop
      vertex 100.713 104.762 -0.349999
      vertex 100.315 104.738 0.349999
      vertex 100.713 104.762 0.349999
    endloop
  endfacet
  facet normal -0.0601922 0.998187 0
    outer loop
      vertex 100.315 104.738 0.349999
      vertex 100.713 104.762 -0.349999
      vertex 100.315 104.738 -0.349999
    endloop
  endfacet
  facet normal -0.258318 0.96606 0
    outer loop
      vertex 99.9213 104.673 -0.349999
      vertex 99.5361 104.57 0.349999
      vertex 99.9213 104.673 0.349999
    endloop
  endfacet
  facet normal -0.258318 0.96606 0
    outer loop
      vertex 99.5361 104.57 0.349999
      vertex 99.9213 104.673 -0.349999
      vertex 99.5361 104.57 -0.349999
    endloop
  endfacet
  facet normal -0.162895 0.986643 0
    outer loop
      vertex 100.315 104.738 -0.349999
      vertex 99.9213 104.673 0.349999
      vertex 100.315 104.738 0.349999
    endloop
  endfacet
  facet normal -0.162895 0.986643 0
    outer loop
      vertex 99.9213 104.673 0.349999
      vertex 100.315 104.738 -0.349999
      vertex 99.9213 104.673 -0.349999
    endloop
  endfacet
  facet normal -0.884117 -0.467265 0
    outer loop
      vertex 97.3238 98.7197 -0.349999
      vertex 97.1375 99.0722 0.349999
      vertex 97.1375 99.0722 -0.349999
    endloop
  endfacet
  facet normal -0.884117 -0.467265 0
    outer loop
      vertex 97.1375 99.0722 0.349999
      vertex 97.3238 98.7197 -0.349999
      vertex 97.3238 98.7197 0.349999
    endloop
  endfacet
  facet normal -0.833257 -0.552886 0
    outer loop
      vertex 97.4575 98.5182 -0.349999
      vertex 97.3238 98.7197 0.349999
      vertex 97.3238 98.7197 -0.349999
    endloop
  endfacet
  facet normal -0.833257 -0.552886 0
    outer loop
      vertex 97.3238 98.7197 0.349999
      vertex 97.4575 98.5182 -0.349999
      vertex 97.4575 98.5182 0.349999
    endloop
  endfacet
  facet normal -0.99618 -0.0873226 0
    outer loop
      vertex 96.8003 100.216 -0.349999
      vertex 96.7655 100.613 0.349999
      vertex 96.7655 100.613 -0.349999
    endloop
  endfacet
  facet normal -0.99618 -0.0873226 0
    outer loop
      vertex 96.7655 100.613 0.349999
      vertex 96.8003 100.216 -0.349999
      vertex 96.8003 100.216 0.349999
    endloop
  endfacet
  facet normal -0.98259 -0.185787 0
    outer loop
      vertex 96.8744 99.8241 -0.349999
      vertex 96.8003 100.216 0.349999
      vertex 96.8003 100.216 -0.349999
    endloop
  endfacet
  facet normal -0.98259 -0.185787 0
    outer loop
      vertex 96.8003 100.216 0.349999
      vertex 96.8744 99.8241 -0.349999
      vertex 96.8744 99.8241 0.349999
    endloop
  endfacet
  facet normal -0.758655 0.651492 0
    outer loop
      vertex 97.6045 103.217 -0.349999
      vertex 97.8647 103.52 0.349999
      vertex 97.8647 103.52 -0.349999
    endloop
  endfacet
  facet normal -0.758655 0.651492 0
    outer loop
      vertex 97.8647 103.52 0.349999
      vertex 97.6045 103.217 -0.349999
      vertex 97.6045 103.217 0.349999
    endloop
  endfacet
  facet normal -0.818642 0.574305 0
    outer loop
      vertex 97.3758 102.891 -0.349999
      vertex 97.6045 103.217 0.349999
      vertex 97.6045 103.217 -0.349999
    endloop
  endfacet
  facet normal -0.818642 0.574305 0
    outer loop
      vertex 97.6045 103.217 0.349999
      vertex 97.3758 102.891 -0.349999
      vertex 97.3758 102.891 0.349999
    endloop
  endfacet
  facet normal -0.951914 0.306366 0
    outer loop
      vertex 96.899 101.798 -0.349999
      vertex 97.0213 102.178 0.349999
      vertex 97.0213 102.178 -0.349999
    endloop
  endfacet
  facet normal -0.951914 0.306366 0
    outer loop
      vertex 97.0213 102.178 0.349999
      vertex 96.899 101.798 -0.349999
      vertex 96.899 101.798 0.349999
    endloop
  endfacet
  facet normal -0.977633 0.210317 0
    outer loop
      vertex 96.8151 101.408 -0.349999
      vertex 96.899 101.798 0.349999
      vertex 96.899 101.798 -0.349999
    endloop
  endfacet
  facet normal -0.977633 0.210317 0
    outer loop
      vertex 96.899 101.798 0.349999
      vertex 96.8151 101.408 -0.349999
      vertex 96.8151 101.408 0.349999
    endloop
  endfacet
  facet normal -0.999921 0.0125303 0
    outer loop
      vertex 96.7655 100.613 -0.349999
      vertex 96.7705 101.012 0.349999
      vertex 96.7705 101.012 -0.349999
    endloop
  endfacet
  facet normal -0.999921 0.0125303 0
    outer loop
      vertex 96.7705 101.012 0.349999
      vertex 96.7655 100.613 -0.349999
      vertex 96.7655 100.613 0.349999
    endloop
  endfacet
  facet normal 0.671176 0.741298 -0
    outer loop
      vertex 103.591 103.591 -0.349999
      vertex 103.295 103.859 0.349999
      vertex 103.591 103.591 0.349999
    endloop
  endfacet
  facet normal 0.671176 0.741298 0
    outer loop
      vertex 103.295 103.859 0.349999
      vertex 103.591 103.591 -0.349999
      vertex 103.295 103.859 -0.349999
    endloop
  endfacet
  facet normal -0.0873226 -0.99618 0
    outer loop
      vertex 100.216 96.8003 -0.349999
      vertex 100.613 96.7655 0.349999
      vertex 100.216 96.8003 0.349999
    endloop
  endfacet
  facet normal -0.0873226 -0.99618 -0
    outer loop
      vertex 100.613 96.7655 0.349999
      vertex 100.216 96.8003 -0.349999
      vertex 100.613 96.7655 -0.349999
    endloop
  endfacet
  facet normal 0.790379 -0.612619 0
    outer loop
      vertex 103.795 98.1536 0.349999
      vertex 104.039 98.4684 -0.349999
      vertex 104.039 98.4684 0.349999
    endloop
  endfacet
  facet normal 0.790379 -0.612619 0
    outer loop
      vertex 104.039 98.4684 -0.349999
      vertex 103.795 98.1536 0.349999
      vertex 103.795 98.1536 -0.349999
    endloop
  endfacet
  facet normal 0.329008 0.944327 -0
    outer loop
      vertex 102.27 104.468 -0.349999
      vertex 101.894 104.599 0.349999
      vertex 102.27 104.468 0.349999
    endloop
  endfacet
  facet normal 0.329008 0.944327 0
    outer loop
      vertex 101.894 104.599 0.349999
      vertex 102.27 104.468 -0.349999
      vertex 101.894 104.599 -0.349999
    endloop
  endfacet
  facet normal 0.423022 0.906119 -0
    outer loop
      vertex 102.632 104.299 -0.349999
      vertex 102.27 104.468 0.349999
      vertex 102.632 104.299 0.349999
    endloop
  endfacet
  facet normal 0.423022 0.906119 0
    outer loop
      vertex 102.27 104.468 0.349999
      vertex 102.632 104.299 -0.349999
      vertex 102.27 104.468 -0.349999
    endloop
  endfacet
  facet normal 0.509321 0.860577 -0
    outer loop
      vertex 102.975 104.096 -0.349999
      vertex 102.632 104.299 0.349999
      vertex 102.975 104.096 0.349999
    endloop
  endfacet
  facet normal 0.509321 0.860577 0
    outer loop
      vertex 102.632 104.299 0.349999
      vertex 102.975 104.096 -0.349999
      vertex 102.632 104.299 -0.349999
    endloop
  endfacet
  facet normal -0.959162 -0.282859 0
    outer loop
      vertex 96.9872 99.4416 -0.349999
      vertex 96.8744 99.8241 0.349999
      vertex 96.8744 99.8241 -0.349999
    endloop
  endfacet
  facet normal -0.959162 -0.282859 0
    outer loop
      vertex 96.8744 99.8241 0.349999
      vertex 96.9872 99.4416 -0.349999
      vertex 96.9872 99.4416 0.349999
    endloop
  endfacet
  facet normal -0.872378 0.488832 0
    outer loop
      vertex 97.1808 102.543 -0.349999
      vertex 97.3758 102.891 0.349999
      vertex 97.3758 102.891 -0.349999
    endloop
  endfacet
  facet normal -0.872378 0.488832 0
    outer loop
      vertex 97.3758 102.891 0.349999
      vertex 97.1808 102.543 -0.349999
      vertex 97.1808 102.543 0.349999
    endloop
  endfacet
  facet normal 0.803602 0.595167 0
    outer loop
      vertex 104.096 102.975 0.349999
      vertex 103.859 103.295 -0.349999
      vertex 103.859 103.295 0.349999
    endloop
  endfacet
  facet normal 0.803602 0.595167 0
    outer loop
      vertex 103.859 103.295 -0.349999
      vertex 104.096 102.975 0.349999
      vertex 104.096 102.975 -0.349999
    endloop
  endfacet
  facet normal 0.860577 0.509321 0
    outer loop
      vertex 104.299 102.632 0.349999
      vertex 104.096 102.975 -0.349999
      vertex 104.096 102.975 0.349999
    endloop
  endfacet
  facet normal 0.860577 0.509321 0
    outer loop
      vertex 104.096 102.975 -0.349999
      vertex 104.299 102.632 0.349999
      vertex 104.299 102.632 -0.349999
    endloop
  endfacet
  facet normal 0.96606 -0.258318 0
    outer loop
      vertex 104.57 99.5361 0.349999
      vertex 104.673 99.9213 -0.349999
      vertex 104.673 99.9213 0.349999
    endloop
  endfacet
  facet normal 0.96606 -0.258318 0
    outer loop
      vertex 104.673 99.9213 -0.349999
      vertex 104.57 99.5361 0.349999
      vertex 104.57 99.5361 -0.349999
    endloop
  endfacet
  facet normal 0.999291 0.0376617 0
    outer loop
      vertex 104.762 100.713 0.349999
      vertex 104.747 101.111 -0.349999
      vertex 104.747 101.111 0.349999
    endloop
  endfacet
  facet normal 0.999291 0.0376617 0
    outer loop
      vertex 104.747 101.111 -0.349999
      vertex 104.762 100.713 0.349999
      vertex 104.762 100.713 -0.349999
    endloop
  endfacet
  facet normal 0.944327 0.329008 0
    outer loop
      vertex 104.599 101.894 0.349999
      vertex 104.468 102.27 -0.349999
      vertex 104.468 102.27 0.349999
    endloop
  endfacet
  facet normal 0.944327 0.329008 0
    outer loop
      vertex 104.468 102.27 -0.349999
      vertex 104.599 101.894 0.349999
      vertex 104.599 101.894 -0.349999
    endloop
  endfacet
  facet normal 0.990784 0.135449 0
    outer loop
      vertex 104.747 101.111 0.349999
      vertex 104.693 101.506 -0.349999
      vertex 104.693 101.506 0.349999
    endloop
  endfacet
  facet normal 0.990784 0.135449 0
    outer loop
      vertex 104.693 101.506 -0.349999
      vertex 104.747 101.111 0.349999
      vertex 104.747 101.111 -0.349999
    endloop
  endfacet
  facet normal 0.724317 -0.689467 0
    outer loop
      vertex 103.52 97.8647 0.349999
      vertex 103.795 98.1536 -0.349999
      vertex 103.795 98.1536 0.349999
    endloop
  endfacet
  facet normal 0.724317 -0.689467 0
    outer loop
      vertex 103.795 98.1536 -0.349999
      vertex 103.52 97.8647 0.349999
      vertex 103.52 97.8647 -0.349999
    endloop
  endfacet
  facet normal 0.998187 -0.0601922 0
    outer loop
      vertex 104.738 100.315 0.349999
      vertex 104.762 100.713 -0.349999
      vertex 104.762 100.713 0.349999
    endloop
  endfacet
  facet normal 0.998187 -0.0601922 0
    outer loop
      vertex 104.762 100.713 -0.349999
      vertex 104.738 100.315 0.349999
      vertex 104.738 100.315 -0.349999
    endloop
  endfacet
  facet normal 0.986643 -0.162895 0
    outer loop
      vertex 104.673 99.9213 0.349999
      vertex 104.738 100.315 -0.349999
      vertex 104.738 100.315 0.349999
    endloop
  endfacet
  facet normal 0.986643 -0.162895 0
    outer loop
      vertex 104.738 100.315 -0.349999
      vertex 104.673 99.9213 0.349999
      vertex 104.673 99.9213 -0.349999
    endloop
  endfacet
  facet normal 0.906119 0.423022 0
    outer loop
      vertex 104.468 102.27 0.349999
      vertex 104.299 102.632 -0.349999
      vertex 104.299 102.632 0.349999
    endloop
  endfacet
  facet normal 0.906119 0.423022 0
    outer loop
      vertex 104.299 102.632 -0.349999
      vertex 104.468 102.27 0.349999
      vertex 104.468 102.27 -0.349999
    endloop
  endfacet
  facet normal 0.971885 0.235457 0
    outer loop
      vertex 104.693 101.506 0.349999
      vertex 104.599 101.894 -0.349999
      vertex 104.599 101.894 0.349999
    endloop
  endfacet
  facet normal 0.971885 0.235457 0
    outer loop
      vertex 104.599 101.894 -0.349999
      vertex 104.693 101.506 0.349999
      vertex 104.693 101.506 -0.349999
    endloop
  endfacet
  facet normal 0.488832 -0.872378 0
    outer loop
      vertex 102.543 97.1808 -0.349999
      vertex 102.891 97.3758 0.349999
      vertex 102.543 97.1808 0.349999
    endloop
  endfacet
  facet normal 0.488832 -0.872378 0
    outer loop
      vertex 102.891 97.3758 0.349999
      vertex 102.543 97.1808 -0.349999
      vertex 102.891 97.3758 -0.349999
    endloop
  endfacet
  facet normal 0.651492 -0.758655 0
    outer loop
      vertex 103.217 97.6045 -0.349999
      vertex 103.52 97.8647 0.349999
      vertex 103.217 97.6045 0.349999
    endloop
  endfacet
  facet normal 0.651492 -0.758655 0
    outer loop
      vertex 103.52 97.8647 0.349999
      vertex 103.217 97.6045 -0.349999
      vertex 103.52 97.8647 -0.349999
    endloop
  endfacet
  facet normal 0.0125303 -0.999921 0
    outer loop
      vertex 100.613 96.7655 -0.349999
      vertex 101.012 96.7705 0.349999
      vertex 100.613 96.7655 0.349999
    endloop
  endfacet
  facet normal 0.0125303 -0.999921 0
    outer loop
      vertex 101.012 96.7705 0.349999
      vertex 100.613 96.7655 -0.349999
      vertex 101.012 96.7705 -0.349999
    endloop
  endfacet
  facet normal -0.283001 -0.95912 0
    outer loop
      vertex 99.6499 96.9258 -0.349999
      vertex 99.8241 96.8744 0.349999
      vertex 99.6499 96.9258 0.349999
    endloop
  endfacet
  facet normal -0.283001 -0.95912 -0
    outer loop
      vertex 99.8241 96.8744 0.349999
      vertex 99.6499 96.9258 -0.349999
      vertex 99.8241 96.8744 -0.349999
    endloop
  endfacet
  facet normal 0.84694 -0.531689 0
    outer loop
      vertex 104.039 98.4684 0.349999
      vertex 104.251 98.8061 -0.349999
      vertex 104.251 98.8061 0.349999
    endloop
  endfacet
  facet normal 0.84694 -0.531689 0
    outer loop
      vertex 104.251 98.8061 -0.349999
      vertex 104.039 98.4684 0.349999
      vertex 104.039 98.4684 -0.349999
    endloop
  endfacet
  facet normal 0.894928 -0.446211 0
    outer loop
      vertex 104.251 98.8061 0.349999
      vertex 104.429 99.1631 -0.349999
      vertex 104.429 99.1631 0.349999
    endloop
  endfacet
  facet normal 0.894928 -0.446211 0
    outer loop
      vertex 104.429 99.1631 -0.349999
      vertex 104.251 98.8061 0.349999
      vertex 104.251 98.8061 -0.349999
    endloop
  endfacet
  facet normal 0.574305 -0.818642 0
    outer loop
      vertex 102.891 97.3758 -0.349999
      vertex 103.217 97.6045 0.349999
      vertex 102.891 97.3758 0.349999
    endloop
  endfacet
  facet normal 0.574305 -0.818642 0
    outer loop
      vertex 103.217 97.6045 0.349999
      vertex 102.891 97.3758 -0.349999
      vertex 103.217 97.6045 -0.349999
    endloop
  endfacet
  facet normal 0.306366 -0.951914 0
    outer loop
      vertex 101.798 96.899 -0.349999
      vertex 102.178 97.0213 0.349999
      vertex 101.798 96.899 0.349999
    endloop
  endfacet
  facet normal 0.306366 -0.951914 0
    outer loop
      vertex 102.178 97.0213 0.349999
      vertex 101.798 96.899 -0.349999
      vertex 102.178 97.0213 -0.349999
    endloop
  endfacet
  facet normal 0.400424 -0.91633 0
    outer loop
      vertex 102.178 97.0213 -0.349999
      vertex 102.543 97.1808 0.349999
      vertex 102.178 97.0213 0.349999
    endloop
  endfacet
  facet normal 0.400424 -0.91633 0
    outer loop
      vertex 102.543 97.1808 0.349999
      vertex 102.178 97.0213 -0.349999
      vertex 102.543 97.1808 -0.349999
    endloop
  endfacet
  facet normal -0.185787 -0.98259 0
    outer loop
      vertex 99.8241 96.8744 -0.349999
      vertex 100.216 96.8003 0.349999
      vertex 99.8241 96.8744 0.349999
    endloop
  endfacet
  facet normal -0.185787 -0.98259 -0
    outer loop
      vertex 100.216 96.8003 0.349999
      vertex 99.8241 96.8744 -0.349999
      vertex 100.216 96.8003 -0.349999
    endloop
  endfacet
  facet normal 0.210317 -0.977633 0
    outer loop
      vertex 101.408 96.8151 -0.349999
      vertex 101.798 96.899 0.349999
      vertex 101.408 96.8151 0.349999
    endloop
  endfacet
  facet normal 0.210317 -0.977633 0
    outer loop
      vertex 101.798 96.899 0.349999
      vertex 101.408 96.8151 -0.349999
      vertex 101.798 96.899 -0.349999
    endloop
  endfacet
  facet normal 0.111919 -0.993717 0
    outer loop
      vertex 101.012 96.7705 -0.349999
      vertex 101.408 96.8151 0.349999
      vertex 101.012 96.7705 0.349999
    endloop
  endfacet
  facet normal 0.111919 -0.993717 0
    outer loop
      vertex 101.408 96.8151 0.349999
      vertex 101.012 96.7705 -0.349999
      vertex 101.408 96.8151 -0.349999
    endloop
  endfacet
  facet normal 0.234502 0.972116 -0
    outer loop
      vertex -99.6314 -96.926 -0.349999
      vertex -100.019 -96.8325 0.349999
      vertex -99.6314 -96.926 0.349999
    endloop
  endfacet
  facet normal 0.234502 0.972116 0
    outer loop
      vertex -100.019 -96.8325 0.349999
      vertex -99.6314 -96.926 -0.349999
      vertex -100.019 -96.8325 -0.349999
    endloop
  endfacet
  facet normal -0.353815 0.935315 0
    outer loop
      vertex -101.989 -96.9554 -0.349999
      vertex -102.362 -97.0965 0.349999
      vertex -101.989 -96.9554 0.349999
    endloop
  endfacet
  facet normal -0.353815 0.935315 0
    outer loop
      vertex -102.362 -97.0965 0.349999
      vertex -101.989 -96.9554 -0.349999
      vertex -102.362 -97.0965 -0.349999
    endloop
  endfacet
  facet normal -0.91699 0.39891 0
    outer loop
      vertex -104.504 -99.3479 -0.349999
      vertex -104.345 -98.9824 0.349999
      vertex -104.345 -98.9824 -0.349999
    endloop
  endfacet
  facet normal -0.91699 0.39891 0
    outer loop
      vertex -104.345 -98.9824 0.349999
      vertex -104.504 -99.3479 -0.349999
      vertex -104.504 -99.3479 0.349999
    endloop
  endfacet
  facet normal -0.926384 -0.376579 0
    outer loop
      vertex -104.388 -102.453 -0.349999
      vertex -104.538 -102.084 0.349999
      vertex -104.538 -102.084 -0.349999
    endloop
  endfacet
  facet normal -0.926384 -0.376579 0
    outer loop
      vertex -104.538 -102.084 0.349999
      vertex -104.388 -102.453 -0.349999
      vertex -104.388 -102.453 0.349999
    endloop
  endfacet
  facet normal 0.935315 -0.353815 0
    outer loop
      vertex -97.0965 -102.362 0.349999
      vertex -96.9554 -101.989 -0.349999
      vertex -96.9554 -101.989 0.349999
    endloop
  endfacet
  facet normal 0.935315 -0.353815 0
    outer loop
      vertex -96.9554 -101.989 -0.349999
      vertex -97.0965 -102.362 0.349999
      vertex -97.0965 -102.362 -0.349999
    endloop
  endfacet
  facet normal 0.0373173 0.999303 -0
    outer loop
      vertex -100.414 -96.7779 -0.349999
      vertex -100.813 -96.763 0.349999
      vertex -100.414 -96.7779 0.349999
    endloop
  endfacet
  facet normal 0.0373173 0.999303 0
    outer loop
      vertex -100.813 -96.763 0.349999
      vertex -100.414 -96.7779 -0.349999
      vertex -100.813 -96.763 -0.349999
    endloop
  endfacet
  facet normal -0.53171 0.846927 0
    outer loop
      vertex -102.719 -97.2739 -0.349999
      vertex -103.057 -97.4861 0.349999
      vertex -102.719 -97.2739 0.349999
    endloop
  endfacet
  facet normal -0.53171 0.846927 0
    outer loop
      vertex -103.057 -97.4861 0.349999
      vertex -102.719 -97.2739 -0.349999
      vertex -103.057 -97.4861 -0.349999
    endloop
  endfacet
  facet normal -0.993637 0.112629 0
    outer loop
      vertex -104.755 -100.514 -0.349999
      vertex -104.71 -100.117 0.349999
      vertex -104.71 -100.117 -0.349999
    endloop
  endfacet
  facet normal -0.993637 0.112629 0
    outer loop
      vertex -104.71 -100.117 0.349999
      vertex -104.755 -100.514 -0.349999
      vertex -104.755 -100.514 0.349999
    endloop
  endfacet
  facet normal 0.30605 -0.952016 0
    outer loop
      vertex -99.7274 -104.626 -0.349999
      vertex -99.3479 -104.504 0.349999
      vertex -99.7274 -104.626 0.349999
    endloop
  endfacet
  facet normal 0.30605 -0.952016 0
    outer loop
      vertex -99.3479 -104.504 0.349999
      vertex -99.7274 -104.626 -0.349999
      vertex -99.3479 -104.504 -0.349999
    endloop
  endfacet
  facet normal 0.594783 0.803886 -0
    outer loop
      vertex -98.5162 -97.4555 -0.349999
      vertex -98.5508 -97.4299 0.349999
      vertex -98.5162 -97.4555 0.349999
    endloop
  endfacet
  facet normal 0.594783 0.803886 0
    outer loop
      vertex -98.5508 -97.4299 0.349999
      vertex -98.5162 -97.4555 -0.349999
      vertex -98.5508 -97.4299 -0.349999
    endloop
  endfacet
  facet normal 0.136926 0.990581 -0
    outer loop
      vertex -100.019 -96.8325 -0.349999
      vertex -100.414 -96.7779 0.349999
      vertex -100.019 -96.8325 0.349999
    endloop
  endfacet
  facet normal 0.136926 0.990581 0
    outer loop
      vertex -100.414 -96.7779 0.349999
      vertex -100.019 -96.8325 -0.349999
      vertex -100.414 -96.7779 -0.349999
    endloop
  endfacet
  facet normal -0.689211 0.724561 0
    outer loop
      vertex -103.372 -97.7308 -0.349999
      vertex -103.661 -98.0057 0.349999
      vertex -103.372 -97.7308 0.349999
    endloop
  endfacet
  facet normal -0.689211 0.724561 0
    outer loop
      vertex -103.661 -98.0057 0.349999
      vertex -103.372 -97.7308 -0.349999
      vertex -103.661 -98.0057 -0.349999
    endloop
  endfacet
  facet normal -0.613472 0.789717 0
    outer loop
      vertex -103.057 -97.4861 -0.349999
      vertex -103.372 -97.7308 0.349999
      vertex -103.057 -97.4861 0.349999
    endloop
  endfacet
  facet normal -0.613472 0.789717 0
    outer loop
      vertex -103.372 -97.7308 0.349999
      vertex -103.057 -97.4861 -0.349999
      vertex -103.372 -97.7308 -0.349999
    endloop
  endfacet
  facet normal -0.0624407 0.998049 0
    outer loop
      vertex -100.813 -96.763 -0.349999
      vertex -101.211 -96.7879 0.349999
      vertex -100.813 -96.763 0.349999
    endloop
  endfacet
  facet normal -0.0624407 0.998049 0
    outer loop
      vertex -101.211 -96.7879 0.349999
      vertex -100.813 -96.763 -0.349999
      vertex -101.211 -96.7879 -0.349999
    endloop
  endfacet
  facet normal -0.258912 0.965901 0
    outer loop
      vertex -101.604 -96.8522 -0.349999
      vertex -101.989 -96.9554 0.349999
      vertex -101.604 -96.8522 0.349999
    endloop
  endfacet
  facet normal -0.258912 0.965901 0
    outer loop
      vertex -101.989 -96.9554 0.349999
      vertex -101.604 -96.8522 -0.349999
      vertex -101.989 -96.9554 -0.349999
    endloop
  endfacet
  facet normal -0.161466 0.986878 0
    outer loop
      vertex -101.211 -96.7879 -0.349999
      vertex -101.604 -96.8522 0.349999
      vertex -101.211 -96.7879 0.349999
    endloop
  endfacet
  facet normal -0.161466 0.986878 0
    outer loop
      vertex -101.604 -96.8522 0.349999
      vertex -101.211 -96.7879 -0.349999
      vertex -101.604 -96.8522 -0.349999
    endloop
  endfacet
  facet normal -0.707107 -0.707107 0
    outer loop
      vertex -103.447 -103.729 -0.349999
      vertex -103.729 -103.447 0.349999
      vertex -103.729 -103.447 -0.349999
    endloop
  endfacet
  facet normal -0.707107 -0.707107 0
    outer loop
      vertex -103.729 -103.447 0.349999
      vertex -103.447 -103.729 -0.349999
      vertex -103.447 -103.729 0.349999
    endloop
  endfacet
  facet normal -0.884701 -0.46616 0
    outer loop
      vertex -104.202 -102.806 -0.349999
      vertex -104.388 -102.453 0.349999
      vertex -104.388 -102.453 -0.349999
    endloop
  endfacet
  facet normal -0.884701 -0.46616 0
    outer loop
      vertex -104.388 -102.453 0.349999
      vertex -104.202 -102.806 -0.349999
      vertex -104.202 -102.806 0.349999
    endloop
  endfacet
  facet normal -0.832436 -0.554121 0
    outer loop
      vertex -103.981 -103.138 -0.349999
      vertex -104.202 -102.806 0.349999
      vertex -104.202 -102.806 -0.349999
    endloop
  endfacet
  facet normal -0.832436 -0.554121 0
    outer loop
      vertex -104.202 -102.806 0.349999
      vertex -103.981 -103.138 -0.349999
      vertex -103.981 -103.138 0.349999
    endloop
  endfacet
  facet normal -0.774962 -0.632008 0
    outer loop
      vertex -103.729 -103.447 -0.349999
      vertex -103.981 -103.138 0.349999
      vertex -103.981 -103.138 -0.349999
    endloop
  endfacet
  facet normal -0.774962 -0.632008 0
    outer loop
      vertex -103.981 -103.138 0.349999
      vertex -103.729 -103.447 -0.349999
      vertex -103.729 -103.447 0.349999
    endloop
  endfacet
  facet normal -0.996156 -0.0876016 0
    outer loop
      vertex -104.725 -101.31 -0.349999
      vertex -104.76 -100.912 0.349999
      vertex -104.76 -100.912 -0.349999
    endloop
  endfacet
  facet normal -0.996156 -0.0876016 0
    outer loop
      vertex -104.76 -100.912 0.349999
      vertex -104.725 -101.31 -0.349999
      vertex -104.725 -101.31 0.349999
    endloop
  endfacet
  facet normal -0.959126 -0.28298 0
    outer loop
      vertex -104.538 -102.084 -0.349999
      vertex -104.651 -101.701 0.349999
      vertex -104.651 -101.701 -0.349999
    endloop
  endfacet
  facet normal -0.959126 -0.28298 0
    outer loop
      vertex -104.651 -101.701 0.349999
      vertex -104.538 -102.084 -0.349999
      vertex -104.538 -102.084 0.349999
    endloop
  endfacet
  facet normal -0.982558 -0.185957 0
    outer loop
      vertex -104.651 -101.701 -0.349999
      vertex -104.725 -101.31 0.349999
      vertex -104.725 -101.31 -0.349999
    endloop
  endfacet
  facet normal -0.982558 -0.185957 0
    outer loop
      vertex -104.725 -101.31 0.349999
      vertex -104.651 -101.701 -0.349999
      vertex -104.651 -101.701 0.349999
    endloop
  endfacet
  facet normal -0.758051 0.652195 0
    outer loop
      vertex -103.921 -98.3079 -0.349999
      vertex -103.661 -98.0057 0.349999
      vertex -103.661 -98.0057 -0.349999
    endloop
  endfacet
  facet normal -0.758051 0.652195 0
    outer loop
      vertex -103.661 -98.0057 0.349999
      vertex -103.921 -98.3079 -0.349999
      vertex -103.921 -98.3079 0.349999
    endloop
  endfacet
  facet normal -0.818867 0.573984 0
    outer loop
      vertex -104.15 -98.6346 -0.349999
      vertex -103.921 -98.3079 0.349999
      vertex -103.921 -98.3079 -0.349999
    endloop
  endfacet
  facet normal -0.818867 0.573984 0
    outer loop
      vertex -103.921 -98.3079 0.349999
      vertex -104.15 -98.6346 -0.349999
      vertex -104.15 -98.6346 0.349999
    endloop
  endfacet
  facet normal -0.952016 0.30605 0
    outer loop
      vertex -104.626 -99.7274 -0.349999
      vertex -104.504 -99.3479 0.349999
      vertex -104.504 -99.3479 -0.349999
    endloop
  endfacet
  facet normal -0.952016 0.30605 0
    outer loop
      vertex -104.504 -99.3479 0.349999
      vertex -104.626 -99.7274 -0.349999
      vertex -104.626 -99.7274 0.349999
    endloop
  endfacet
  facet normal -0.977537 0.210763 0
    outer loop
      vertex -104.71 -100.117 -0.349999
      vertex -104.626 -99.7274 0.349999
      vertex -104.626 -99.7274 -0.349999
    endloop
  endfacet
  facet normal -0.977537 0.210763 0
    outer loop
      vertex -104.626 -99.7274 0.349999
      vertex -104.71 -100.117 -0.349999
      vertex -104.71 -100.117 0.349999
    endloop
  endfacet
  facet normal -0.999921 0.0125618 0
    outer loop
      vertex -104.76 -100.912 -0.349999
      vertex -104.755 -100.514 0.349999
      vertex -104.755 -100.514 -0.349999
    endloop
  endfacet
  facet normal -0.999921 0.0125618 0
    outer loop
      vertex -104.755 -100.514 0.349999
      vertex -104.76 -100.912 -0.349999
      vertex -104.76 -100.912 0.349999
    endloop
  endfacet
  facet normal 0.990581 0.136926 0
    outer loop
      vertex -96.7779 -100.414 0.349999
      vertex -96.8325 -100.019 -0.349999
      vertex -96.8325 -100.019 0.349999
    endloop
  endfacet
  facet normal 0.990581 0.136926 0
    outer loop
      vertex -96.8325 -100.019 -0.349999
      vertex -96.7779 -100.414 0.349999
      vertex -96.7779 -100.414 -0.349999
    endloop
  endfacet
  facet normal 0.789717 -0.613472 0
    outer loop
      vertex -97.7308 -103.372 0.349999
      vertex -97.4861 -103.057 -0.349999
      vertex -97.4861 -103.057 0.349999
    endloop
  endfacet
  facet normal 0.789717 -0.613472 0
    outer loop
      vertex -97.4861 -103.057 -0.349999
      vertex -97.7308 -103.372 0.349999
      vertex -97.7308 -103.372 -0.349999
    endloop
  endfacet
  facet normal 0.330261 0.94389 -0
    outer loop
      vertex -99.255 -97.0577 -0.349999
      vertex -99.6314 -96.926 0.349999
      vertex -99.255 -97.0577 0.349999
    endloop
  endfacet
  facet normal 0.330261 0.94389 0
    outer loop
      vertex -99.6314 -96.926 0.349999
      vertex -99.255 -97.0577 -0.349999
      vertex -99.6314 -96.926 -0.349999
    endloop
  endfacet
  facet normal 0.422776 0.906234 -0
    outer loop
      vertex -98.8936 -97.2263 -0.349999
      vertex -99.255 -97.0577 0.349999
      vertex -98.8936 -97.2263 0.349999
    endloop
  endfacet
  facet normal 0.422776 0.906234 0
    outer loop
      vertex -99.255 -97.0577 0.349999
      vertex -98.8936 -97.2263 -0.349999
      vertex -99.255 -97.0577 -0.349999
    endloop
  endfacet
  facet normal 0.510655 0.859786 -0
    outer loop
      vertex -98.5508 -97.4299 -0.349999
      vertex -98.8936 -97.2263 0.349999
      vertex -98.5508 -97.4299 0.349999
    endloop
  endfacet
  facet normal 0.510655 0.859786 0
    outer loop
      vertex -98.8936 -97.2263 0.349999
      vertex -98.5508 -97.4299 -0.349999
      vertex -98.8936 -97.2263 -0.349999
    endloop
  endfacet
  facet normal -0.445005 0.895528 0
    outer loop
      vertex -102.362 -97.0965 -0.349999
      vertex -102.719 -97.2739 0.349999
      vertex -102.362 -97.0965 0.349999
    endloop
  endfacet
  facet normal -0.445005 0.895528 0
    outer loop
      vertex -102.719 -97.2739 0.349999
      vertex -102.362 -97.0965 -0.349999
      vertex -102.719 -97.2739 -0.349999
    endloop
  endfacet
  facet normal -0.872258 0.489046 0
    outer loop
      vertex -104.345 -98.9824 -0.349999
      vertex -104.15 -98.6346 0.349999
      vertex -104.15 -98.6346 -0.349999
    endloop
  endfacet
  facet normal -0.872258 0.489046 0
    outer loop
      vertex -104.15 -98.6346 0.349999
      vertex -104.345 -98.9824 -0.349999
      vertex -104.345 -98.9824 0.349999
    endloop
  endfacet
  facet normal 0.965901 -0.258912 0
    outer loop
      vertex -96.9554 -101.989 0.349999
      vertex -96.8522 -101.604 -0.349999
      vertex -96.8522 -101.604 0.349999
    endloop
  endfacet
  facet normal 0.965901 -0.258912 0
    outer loop
      vertex -96.8522 -101.604 -0.349999
      vertex -96.9554 -101.989 0.349999
      vertex -96.9554 -101.989 -0.349999
    endloop
  endfacet
  facet normal 0.986878 -0.161466 0
    outer loop
      vertex -96.8522 -101.604 0.349999
      vertex -96.7879 -101.211 -0.349999
      vertex -96.7879 -101.211 0.349999
    endloop
  endfacet
  facet normal 0.986878 -0.161466 0
    outer loop
      vertex -96.7879 -101.211 -0.349999
      vertex -96.8522 -101.604 0.349999
      vertex -96.8522 -101.604 -0.349999
    endloop
  endfacet
  facet normal 0.999303 0.0373173 0
    outer loop
      vertex -96.763 -100.813 0.349999
      vertex -96.7779 -100.414 -0.349999
      vertex -96.7779 -100.414 0.349999
    endloop
  endfacet
  facet normal 0.999303 0.0373173 0
    outer loop
      vertex -96.7779 -100.414 -0.349999
      vertex -96.763 -100.813 0.349999
      vertex -96.763 -100.813 -0.349999
    endloop
  endfacet
  facet normal 0.112629 -0.993637 0
    outer loop
      vertex -100.514 -104.755 -0.349999
      vertex -100.117 -104.71 0.349999
      vertex -100.514 -104.755 0.349999
    endloop
  endfacet
  facet normal 0.112629 -0.993637 0
    outer loop
      vertex -100.117 -104.71 0.349999
      vertex -100.514 -104.755 -0.349999
      vertex -100.117 -104.71 -0.349999
    endloop
  endfacet
  facet normal 0.573984 -0.818867 0
    outer loop
      vertex -98.6346 -104.15 -0.349999
      vertex -98.3079 -103.921 0.349999
      vertex -98.6346 -104.15 0.349999
    endloop
  endfacet
  facet normal 0.573984 -0.818867 0
    outer loop
      vertex -98.3079 -103.921 0.349999
      vertex -98.6346 -104.15 -0.349999
      vertex -98.3079 -103.921 -0.349999
    endloop
  endfacet
  facet normal -0.632008 -0.774962 0
    outer loop
      vertex -103.447 -103.729 -0.349999
      vertex -103.138 -103.981 0.349999
      vertex -103.447 -103.729 0.349999
    endloop
  endfacet
  facet normal -0.632008 -0.774962 -0
    outer loop
      vertex -103.138 -103.981 0.349999
      vertex -103.447 -103.729 -0.349999
      vertex -103.138 -103.981 -0.349999
    endloop
  endfacet
  facet normal -0.0876016 -0.996156 0
    outer loop
      vertex -101.31 -104.725 -0.349999
      vertex -100.912 -104.76 0.349999
      vertex -101.31 -104.725 0.349999
    endloop
  endfacet
  facet normal -0.0876016 -0.996156 -0
    outer loop
      vertex -100.912 -104.76 0.349999
      vertex -101.31 -104.725 -0.349999
      vertex -100.912 -104.76 -0.349999
    endloop
  endfacet
  facet normal 0.972107 0.234536 0
    outer loop
      vertex -96.8325 -100.019 0.349999
      vertex -96.9202 -99.6555 -0.349999
      vertex -96.9202 -99.6555 0.349999
    endloop
  endfacet
  facet normal 0.972107 0.234536 0
    outer loop
      vertex -96.9202 -99.6555 -0.349999
      vertex -96.8325 -100.019 0.349999
      vertex -96.8325 -100.019 -0.349999
    endloop
  endfacet
  facet normal 0.652195 -0.758051 0
    outer loop
      vertex -98.3079 -103.921 -0.349999
      vertex -98.0057 -103.661 0.349999
      vertex -98.3079 -103.921 0.349999
    endloop
  endfacet
  facet normal 0.652195 -0.758051 0
    outer loop
      vertex -98.0057 -103.661 0.349999
      vertex -98.3079 -103.921 -0.349999
      vertex -98.0057 -103.661 -0.349999
    endloop
  endfacet
  facet normal 0.724561 -0.689211 0
    outer loop
      vertex -98.0057 -103.661 0.349999
      vertex -97.7308 -103.372 -0.349999
      vertex -97.7308 -103.372 0.349999
    endloop
  endfacet
  facet normal 0.724561 -0.689211 0
    outer loop
      vertex -97.7308 -103.372 -0.349999
      vertex -98.0057 -103.661 0.349999
      vertex -98.0057 -103.661 -0.349999
    endloop
  endfacet
  facet normal -0.554121 -0.832436 0
    outer loop
      vertex -103.138 -103.981 -0.349999
      vertex -102.806 -104.202 0.349999
      vertex -103.138 -103.981 0.349999
    endloop
  endfacet
  facet normal -0.554121 -0.832436 -0
    outer loop
      vertex -102.806 -104.202 0.349999
      vertex -103.138 -103.981 -0.349999
      vertex -102.806 -104.202 -0.349999
    endloop
  endfacet
  facet normal 0.0125618 -0.999921 0
    outer loop
      vertex -100.912 -104.76 -0.349999
      vertex -100.514 -104.755 0.349999
      vertex -100.912 -104.76 0.349999
    endloop
  endfacet
  facet normal 0.0125618 -0.999921 0
    outer loop
      vertex -100.514 -104.755 0.349999
      vertex -100.912 -104.76 -0.349999
      vertex -100.514 -104.755 -0.349999
    endloop
  endfacet
  facet normal -0.28298 -0.959126 0
    outer loop
      vertex -102.084 -104.538 -0.349999
      vertex -101.701 -104.651 0.349999
      vertex -102.084 -104.538 0.349999
    endloop
  endfacet
  facet normal -0.28298 -0.959126 -0
    outer loop
      vertex -101.701 -104.651 0.349999
      vertex -102.084 -104.538 -0.349999
      vertex -101.701 -104.651 -0.349999
    endloop
  endfacet
  facet normal -0.376579 -0.926384 0
    outer loop
      vertex -102.453 -104.388 -0.349999
      vertex -102.084 -104.538 0.349999
      vertex -102.453 -104.388 0.349999
    endloop
  endfacet
  facet normal -0.376579 -0.926384 -0
    outer loop
      vertex -102.084 -104.538 0.349999
      vertex -102.453 -104.388 -0.349999
      vertex -102.084 -104.538 -0.349999
    endloop
  endfacet
  facet normal -0.46616 -0.884701 0
    outer loop
      vertex -102.806 -104.202 -0.349999
      vertex -102.453 -104.388 0.349999
      vertex -102.806 -104.202 0.349999
    endloop
  endfacet
  facet normal -0.46616 -0.884701 -0
    outer loop
      vertex -102.453 -104.388 0.349999
      vertex -102.806 -104.202 -0.349999
      vertex -102.453 -104.388 -0.349999
    endloop
  endfacet
  facet normal 0.998049 -0.0624407 0
    outer loop
      vertex -96.7879 -101.211 0.349999
      vertex -96.763 -100.813 -0.349999
      vertex -96.763 -100.813 0.349999
    endloop
  endfacet
  facet normal 0.998049 -0.0624407 0
    outer loop
      vertex -96.763 -100.813 -0.349999
      vertex -96.7879 -101.211 0.349999
      vertex -96.7879 -101.211 -0.349999
    endloop
  endfacet
  facet normal 0.489046 -0.872258 0
    outer loop
      vertex -98.9824 -104.345 -0.349999
      vertex -98.6346 -104.15 0.349999
      vertex -98.9824 -104.345 0.349999
    endloop
  endfacet
  facet normal 0.489046 -0.872258 0
    outer loop
      vertex -98.6346 -104.15 0.349999
      vertex -98.9824 -104.345 -0.349999
      vertex -98.6346 -104.15 -0.349999
    endloop
  endfacet
  facet normal 0.210763 -0.977537 0
    outer loop
      vertex -100.117 -104.71 -0.349999
      vertex -99.7274 -104.626 0.349999
      vertex -100.117 -104.71 0.349999
    endloop
  endfacet
  facet normal 0.210763 -0.977537 0
    outer loop
      vertex -99.7274 -104.626 0.349999
      vertex -100.117 -104.71 -0.349999
      vertex -99.7274 -104.626 -0.349999
    endloop
  endfacet
  facet normal -0.185957 -0.982558 0
    outer loop
      vertex -101.701 -104.651 -0.349999
      vertex -101.31 -104.725 0.349999
      vertex -101.701 -104.651 0.349999
    endloop
  endfacet
  facet normal -0.185957 -0.982558 -0
    outer loop
      vertex -101.31 -104.725 0.349999
      vertex -101.701 -104.651 -0.349999
      vertex -101.31 -104.725 -0.349999
    endloop
  endfacet
  facet normal 0.895528 -0.445005 0
    outer loop
      vertex -97.2739 -102.719 0.349999
      vertex -97.0965 -102.362 -0.349999
      vertex -97.0965 -102.362 0.349999
    endloop
  endfacet
  facet normal 0.895528 -0.445005 0
    outer loop
      vertex -97.0965 -102.362 -0.349999
      vertex -97.2739 -102.719 0.349999
      vertex -97.2739 -102.719 -0.349999
    endloop
  endfacet
  facet normal 0.846927 -0.53171 0
    outer loop
      vertex -97.4861 -103.057 0.349999
      vertex -97.2739 -102.719 -0.349999
      vertex -97.2739 -102.719 0.349999
    endloop
  endfacet
  facet normal 0.846927 -0.53171 0
    outer loop
      vertex -97.2739 -102.719 -0.349999
      vertex -97.4861 -103.057 0.349999
      vertex -97.4861 -103.057 -0.349999
    endloop
  endfacet
  facet normal 0.39891 -0.91699 0
    outer loop
      vertex -99.3479 -104.504 -0.349999
      vertex -98.9824 -104.345 0.349999
      vertex -99.3479 -104.504 0.349999
    endloop
  endfacet
  facet normal 0.39891 -0.91699 0
    outer loop
      vertex -98.9824 -104.345 0.349999
      vertex -99.3479 -104.504 -0.349999
      vertex -98.9824 -104.345 -0.349999
    endloop
  endfacet
endsolid OpenSCAD_Model
