solid OpenSCAD_Model
  facet normal -1 0 0
    outer loop
      vertex 2.8 -4.7 -0.0799894
      vertex 2.8 4.7 0.224999
      vertex 2.8 4.7 -0.0799894
    endloop
  endfacet
  facet normal -1 -0 0
    outer loop
      vertex 2.8 4.7 0.224999
      vertex 2.8 -4.7 -0.0799894
      vertex 2.8 -4.7 0.224999
    endloop
  endfacet
  facet normal 0 0 1
    outer loop
      vertex 22.2 4.7 0.224999
      vertex 21 3.5 0.224999
      vertex 22.2 -4.7 0.224999
    endloop
  endfacet
  facet normal 0 0 1
    outer loop
      vertex 22.2 4.7 0.224999
      vertex 4 3.5 0.224999
      vertex 21 3.5 0.224999
    endloop
  endfacet
  facet normal 0 0 1
    outer loop
      vertex 4 3.5 0.224999
      vertex 2.8 4.7 0.224999
      vertex 4 -3.5 0.224999
    endloop
  endfacet
  facet normal -0 0 1
    outer loop
      vertex 2.8 4.7 0.224999
      vertex 4 3.5 0.224999
      vertex 22.2 4.7 0.224999
    endloop
  endfacet
  facet normal -0 0 1
    outer loop
      vertex 21 -3.5 0.224999
      vertex 22.2 -4.7 0.224999
      vertex 21 3.5 0.224999
    endloop
  endfacet
  facet normal -0 0 1
    outer loop
      vertex 4 -3.5 0.224999
      vertex 22.2 -4.7 0.224999
      vertex 21 -3.5 0.224999
    endloop
  endfacet
  facet normal 0 0 1
    outer loop
      vertex 4 -3.5 0.224999
      vertex 2.8 -4.7 0.224999
      vertex 22.2 -4.7 0.224999
    endloop
  endfacet
  facet normal 0 0 1
    outer loop
      vertex 2.8 -4.7 0.224999
      vertex 4 -3.5 0.224999
      vertex 2.8 4.7 0.224999
    endloop
  endfacet
  facet normal 1 -0 0
    outer loop
      vertex 22.2 -4.7 0.224999
      vertex 22.2 4.7 -0.0799894
      vertex 22.2 4.7 0.224999
    endloop
  endfacet
  facet normal 1 0 0
    outer loop
      vertex 22.2 4.7 -0.0799894
      vertex 22.2 -4.7 0.224999
      vertex 22.2 -4.7 -0.0799894
    endloop
  endfacet
  facet normal 0 1 -0
    outer loop
      vertex 22.2 4.7 -0.0799894
      vertex 2.8 4.7 0.224999
      vertex 22.2 4.7 0.224999
    endloop
  endfacet
  facet normal 0 1 0
    outer loop
      vertex 2.8 4.7 0.224999
      vertex 22.2 4.7 -0.0799894
      vertex 2.8 4.7 -0.0799894
    endloop
  endfacet
  facet normal 0 -1 0
    outer loop
      vertex 2.8 -4.7 -0.0799894
      vertex 22.2 -4.7 0.224999
      vertex 2.8 -4.7 0.224999
    endloop
  endfacet
  facet normal 0 -1 -0
    outer loop
      vertex 22.2 -4.7 0.224999
      vertex 2.8 -4.7 -0.0799894
      vertex 22.2 -4.7 -0.0799894
    endloop
  endfacet
  facet normal -1 0 0
    outer loop
      vertex -22.2 -4.7 -0.0799894
      vertex -22.2 4.7 0.224999
      vertex -22.2 4.7 -0.0799894
    endloop
  endfacet
  facet normal -1 -0 0
    outer loop
      vertex -22.2 4.7 0.224999
      vertex -22.2 -4.7 -0.0799894
      vertex -22.2 -4.7 0.224999
    endloop
  endfacet
  facet normal 0 0 1
    outer loop
      vertex -2.8 4.7 0.224999
      vertex -4 3.5 0.224999
      vertex -2.8 -4.7 0.224999
    endloop
  endfacet
  facet normal 0 0 1
    outer loop
      vertex -2.8 4.7 0.224999
      vertex -21 3.5 0.224999
      vertex -4 3.5 0.224999
    endloop
  endfacet
  facet normal 0 0 1
    outer loop
      vertex -21 3.5 0.224999
      vertex -22.2 4.7 0.224999
      vertex -21 -3.5 0.224999
    endloop
  endfacet
  facet normal -0 0 1
    outer loop
      vertex -22.2 4.7 0.224999
      vertex -21 3.5 0.224999
      vertex -2.8 4.7 0.224999
    endloop
  endfacet
  facet normal -0 0 1
    outer loop
      vertex -4 -3.5 0.224999
      vertex -2.8 -4.7 0.224999
      vertex -4 3.5 0.224999
    endloop
  endfacet
  facet normal -0 0 1
    outer loop
      vertex -21 -3.5 0.224999
      vertex -2.8 -4.7 0.224999
      vertex -4 -3.5 0.224999
    endloop
  endfacet
  facet normal 0 0 1
    outer loop
      vertex -21 -3.5 0.224999
      vertex -22.2 -4.7 0.224999
      vertex -2.8 -4.7 0.224999
    endloop
  endfacet
  facet normal 0 0 1
    outer loop
      vertex -22.2 -4.7 0.224999
      vertex -21 -3.5 0.224999
      vertex -22.2 4.7 0.224999
    endloop
  endfacet
  facet normal 1 -0 0
    outer loop
      vertex -2.8 -4.7 0.224999
      vertex -2.8 4.7 -0.0799894
      vertex -2.8 4.7 0.224999
    endloop
  endfacet
  facet normal 1 0 0
    outer loop
      vertex -2.8 4.7 -0.0799894
      vertex -2.8 -4.7 0.224999
      vertex -2.8 -4.7 -0.0799894
    endloop
  endfacet
  facet normal 0 -1 0
    outer loop
      vertex -22.2 -4.7 -0.0799894
      vertex -2.8 -4.7 0.224999
      vertex -22.2 -4.7 0.224999
    endloop
  endfacet
  facet normal 0 -1 -0
    outer loop
      vertex -2.8 -4.7 0.224999
      vertex -22.2 -4.7 -0.0799894
      vertex -2.8 -4.7 -0.0799894
    endloop
  endfacet
  facet normal 0 1 -0
    outer loop
      vertex -2.8 4.7 -0.0799894
      vertex -22.2 4.7 0.224999
      vertex -2.8 4.7 0.224999
    endloop
  endfacet
  facet normal 0 1 0
    outer loop
      vertex -22.2 4.7 0.224999
      vertex -2.8 4.7 -0.0799894
      vertex -22.2 4.7 -0.0799894
    endloop
  endfacet
  facet normal 0 0 1
    outer loop
      vertex 22.5 5.19999 -0.0799894
      vertex 22.2 4.7 -0.0799894
      vertex 22.5 -5.2 -0.0799894
    endloop
  endfacet
  facet normal 0 0 1
    outer loop
      vertex 22.5 5.19999 -0.0799894
      vertex 2.8 4.7 -0.0799894
      vertex 22.2 4.7 -0.0799894
    endloop
  endfacet
  facet normal 0 0 1
    outer loop
      vertex 2.8 4.7 -0.0799894
      vertex -2.8 4.7 -0.0799894
      vertex 2.8 -4.7 -0.0799894
    endloop
  endfacet
  facet normal 0 0 1
    outer loop
      vertex 22.5 5.19999 -0.0799894
      vertex -2.8 4.7 -0.0799894
      vertex 2.8 4.7 -0.0799894
    endloop
  endfacet
  facet normal -0 0 1
    outer loop
      vertex -22.5 5.19999 -0.0799894
      vertex -2.8 4.7 -0.0799894
      vertex 22.5 5.19999 -0.0799894
    endloop
  endfacet
  facet normal 0 0 1
    outer loop
      vertex -22.2 4.7 -0.0799894
      vertex -22.5 5.19999 -0.0799894
      vertex -22.2 -4.7 -0.0799894
    endloop
  endfacet
  facet normal 0 0 1
    outer loop
      vertex -2.8 4.7 -0.0799894
      vertex -22.5 5.19999 -0.0799894
      vertex -22.2 4.7 -0.0799894
    endloop
  endfacet
  facet normal -0 0 1
    outer loop
      vertex 22.2 -4.7 -0.0799894
      vertex 22.5 -5.2 -0.0799894
      vertex 22.2 4.7 -0.0799894
    endloop
  endfacet
  facet normal -0 0 1
    outer loop
      vertex 2.8 -4.7 -0.0799894
      vertex 22.5 -5.2 -0.0799894
      vertex 22.2 -4.7 -0.0799894
    endloop
  endfacet
  facet normal 0 0 1
    outer loop
      vertex -2.8 -4.7 -0.0799894
      vertex 2.8 -4.7 -0.0799894
      vertex -2.8 4.7 -0.0799894
    endloop
  endfacet
  facet normal -0 0 1
    outer loop
      vertex -2.8 -4.7 -0.0799894
      vertex 22.5 -5.2 -0.0799894
      vertex 2.8 -4.7 -0.0799894
    endloop
  endfacet
  facet normal 0 0 1
    outer loop
      vertex -22.5 -5.2 -0.0799894
      vertex -2.8 -4.7 -0.0799894
      vertex -22.2 -4.7 -0.0799894
    endloop
  endfacet
  facet normal 0 0 1
    outer loop
      vertex -2.8 -4.7 -0.0799894
      vertex -22.5 -5.2 -0.0799894
      vertex 22.5 -5.2 -0.0799894
    endloop
  endfacet
  facet normal 0 0 1
    outer loop
      vertex -22.5 -5.2 -0.0799894
      vertex -22.2 -4.7 -0.0799894
      vertex -22.5 5.19999 -0.0799894
    endloop
  endfacet
  facet normal 0 -0.714073 0.700071
    outer loop
      vertex -22.5 -6.2 -1.09999
      vertex 22.5 -5.2 -0.0799894
      vertex -22.5 -5.2 -0.0799894
    endloop
  endfacet
  facet normal 0 -0.714073 0.700071
    outer loop
      vertex 22.5 -5.2 -0.0799894
      vertex -22.5 -6.2 -1.09999
      vertex 22.5 -6.2 -1.09999
    endloop
  endfacet
  facet normal -1 0 0
    outer loop
      vertex -22.5 6.09999 -1.09999
      vertex -22.5 -5.2 -0.0799894
      vertex -22.5 5.19999 -0.0799894
    endloop
  endfacet
  facet normal -1 0 -0
    outer loop
      vertex -22.5 -5.2 -0.0799894
      vertex -22.5 6.09999 -1.09999
      vertex -22.5 -6.2 -1.09999
    endloop
  endfacet
  facet normal 0 0.749838 0.661621
    outer loop
      vertex 22.5 6.09999 -1.09999
      vertex -22.5 5.19999 -0.0799894
      vertex 22.5 5.19999 -0.0799894
    endloop
  endfacet
  facet normal 0 0.749838 0.661621
    outer loop
      vertex -22.5 5.19999 -0.0799894
      vertex 22.5 6.09999 -1.09999
      vertex -22.5 6.09999 -1.09999
    endloop
  endfacet
  facet normal 0 0 -1
    outer loop
      vertex 22.5 -6.2 -1.09999
      vertex 21 -3.5 -1.09999
      vertex 22.5 6.09999 -1.09999
    endloop
  endfacet
  facet normal 0 0 -1
    outer loop
      vertex 22.5 -6.2 -1.09999
      vertex 4 -3.5 -1.09999
      vertex 21 -3.5 -1.09999
    endloop
  endfacet
  facet normal 0 0 -1
    outer loop
      vertex 4 -3.5 -1.09999
      vertex -4 -3.5 -1.09999
      vertex 4 3.5 -1.09999
    endloop
  endfacet
  facet normal 0 0 -1
    outer loop
      vertex 22.5 -6.2 -1.09999
      vertex -4 -3.5 -1.09999
      vertex 4 -3.5 -1.09999
    endloop
  endfacet
  facet normal 0 0 -1
    outer loop
      vertex -22.5 -6.2 -1.09999
      vertex -4 -3.5 -1.09999
      vertex 22.5 -6.2 -1.09999
    endloop
  endfacet
  facet normal 0 0 -1
    outer loop
      vertex -22.5 6.09999 -1.09999
      vertex -21 -3.5 -1.09999
      vertex -22.5 -6.2 -1.09999
    endloop
  endfacet
  facet normal -0 0 -1
    outer loop
      vertex -4 -3.5 -1.09999
      vertex -22.5 -6.2 -1.09999
      vertex -21 -3.5 -1.09999
    endloop
  endfacet
  facet normal 0 0 -1
    outer loop
      vertex 21 3.5 -1.09999
      vertex 22.5 6.09999 -1.09999
      vertex 21 -3.5 -1.09999
    endloop
  endfacet
  facet normal 0 0 -1
    outer loop
      vertex 4 3.5 -1.09999
      vertex 22.5 6.09999 -1.09999
      vertex 21 3.5 -1.09999
    endloop
  endfacet
  facet normal 0 0 -1
    outer loop
      vertex -4 3.5 -1.09999
      vertex 4 3.5 -1.09999
      vertex -4 -3.5 -1.09999
    endloop
  endfacet
  facet normal 0 0 -1
    outer loop
      vertex -4 3.5 -1.09999
      vertex 22.5 6.09999 -1.09999
      vertex 4 3.5 -1.09999
    endloop
  endfacet
  facet normal 0 0 -1
    outer loop
      vertex -22.5 6.09999 -1.09999
      vertex -4 3.5 -1.09999
      vertex -21 3.5 -1.09999
    endloop
  endfacet
  facet normal 0 0 -1
    outer loop
      vertex -4 3.5 -1.09999
      vertex -22.5 6.09999 -1.09999
      vertex 22.5 6.09999 -1.09999
    endloop
  endfacet
  facet normal 0 0 -1
    outer loop
      vertex -21 -3.5 -1.09999
      vertex -22.5 6.09999 -1.09999
      vertex -21 3.5 -1.09999
    endloop
  endfacet
  facet normal 1 -0 0
    outer loop
      vertex 22.5 -5.2 -0.0799894
      vertex 22.5 6.09999 -1.09999
      vertex 22.5 5.19999 -0.0799894
    endloop
  endfacet
  facet normal 1 0 0
    outer loop
      vertex 22.5 6.09999 -1.09999
      vertex 22.5 -5.2 -0.0799894
      vertex 22.5 -6.2 -1.09999
    endloop
  endfacet
  facet normal 1 -0 0
    outer loop
      vertex 4 -3.5 0.224999
      vertex 4 3.5 -1.09999
      vertex 4 3.5 0.224999
    endloop
  endfacet
  facet normal 1 0 0
    outer loop
      vertex 4 3.5 -1.09999
      vertex 4 -3.5 0.224999
      vertex 4 -3.5 -1.09999
    endloop
  endfacet
  facet normal -1 0 0
    outer loop
      vertex 21 -3.5 -1.09999
      vertex 21 3.5 0.224999
      vertex 21 3.5 -1.09999
    endloop
  endfacet
  facet normal -1 -0 0
    outer loop
      vertex 21 3.5 0.224999
      vertex 21 -3.5 -1.09999
      vertex 21 -3.5 0.224999
    endloop
  endfacet
  facet normal 0 -1 0
    outer loop
      vertex 4 3.5 -1.09999
      vertex 21 3.5 0.224999
      vertex 4 3.5 0.224999
    endloop
  endfacet
  facet normal 0 -1 -0
    outer loop
      vertex 21 3.5 0.224999
      vertex 4 3.5 -1.09999
      vertex 21 3.5 -1.09999
    endloop
  endfacet
  facet normal 0 1 -0
    outer loop
      vertex 21 -3.5 -1.09999
      vertex 4 -3.5 0.224999
      vertex 21 -3.5 0.224999
    endloop
  endfacet
  facet normal 0 1 0
    outer loop
      vertex 4 -3.5 0.224999
      vertex 21 -3.5 -1.09999
      vertex 4 -3.5 -1.09999
    endloop
  endfacet
  facet normal 1 -0 0
    outer loop
      vertex -21 -3.5 0.224999
      vertex -21 3.5 -1.09999
      vertex -21 3.5 0.224999
    endloop
  endfacet
  facet normal 1 0 0
    outer loop
      vertex -21 3.5 -1.09999
      vertex -21 -3.5 0.224999
      vertex -21 -3.5 -1.09999
    endloop
  endfacet
  facet normal -1 0 0
    outer loop
      vertex -4 -3.5 -1.09999
      vertex -4 3.5 0.224999
      vertex -4 3.5 -1.09999
    endloop
  endfacet
  facet normal -1 -0 0
    outer loop
      vertex -4 3.5 0.224999
      vertex -4 -3.5 -1.09999
      vertex -4 -3.5 0.224999
    endloop
  endfacet
  facet normal 0 1 -0
    outer loop
      vertex -4 -3.5 -1.09999
      vertex -21 -3.5 0.224999
      vertex -4 -3.5 0.224999
    endloop
  endfacet
  facet normal 0 1 0
    outer loop
      vertex -21 -3.5 0.224999
      vertex -4 -3.5 -1.09999
      vertex -21 -3.5 -1.09999
    endloop
  endfacet
  facet normal 0 -1 0
    outer loop
      vertex -21 3.5 -1.09999
      vertex -4 3.5 0.224999
      vertex -21 3.5 0.224999
    endloop
  endfacet
  facet normal 0 -1 -0
    outer loop
      vertex -4 3.5 0.224999
      vertex -21 3.5 -1.09999
      vertex -4 3.5 -1.09999
    endloop
  endfacet
endsolid OpenSCAD_Model
